<mxfile host="app.diagrams.net" modified="2024-06-25T11:54:31.108Z" agent="Mozilla/5.0 (Windows NT 10.0; Win64; x64) AppleWebKit/537.36 (KHTML, like Gecko) Chrome/126.0.0.0 Safari/537.36" etag="rJmKJbD9a6AmRFxxNDdy" version="23.1.4" type="device">
  <diagram name="PÃ¡gina-1" id="6_KS6Z48aH50eTMkukL5">
    <mxGraphModel dx="2514" dy="918" grid="1" gridSize="10" guides="1" tooltips="1" connect="1" arrows="1" fold="1" page="1" pageScale="1" pageWidth="827" pageHeight="1169" math="0" shadow="0">
      <root>
        <mxCell id="0" />
        <mxCell id="1" parent="0" />
        <mxCell id="QtaL7ST3ouDVnCg1hJHW-4" style="edgeStyle=orthogonalEdgeStyle;rounded=0;orthogonalLoop=1;jettySize=auto;html=1;entryX=0;entryY=0.5;entryDx=0;entryDy=0;fontSize=21;" edge="1" parent="1">
          <mxGeometry relative="1" as="geometry">
            <mxPoint x="270" y="485" as="sourcePoint" />
            <mxPoint x="330" y="485" as="targetPoint" />
          </mxGeometry>
        </mxCell>
        <mxCell id="QtaL7ST3ouDVnCg1hJHW-6" style="edgeStyle=orthogonalEdgeStyle;rounded=0;orthogonalLoop=1;jettySize=auto;html=1;entryX=0;entryY=0.5;entryDx=0;entryDy=0;fontSize=21;" edge="1" parent="1">
          <mxGeometry relative="1" as="geometry">
            <mxPoint x="621" y="485" as="sourcePoint" />
            <mxPoint x="681" y="485" as="targetPoint" />
          </mxGeometry>
        </mxCell>
        <mxCell id="QtaL7ST3ouDVnCg1hJHW-7" value="&lt;font style=&quot;font-size: 21px;&quot;&gt;&lt;span style=&quot;font-size: 21px;&quot;&gt;NtQueryVirtualMemory&lt;/span&gt;&lt;br style=&quot;font-size: 21px;&quot;&gt;&lt;span style=&quot;font-size: 21px;&quot;&gt;+&lt;/span&gt;&lt;br style=&quot;font-size: 21px;&quot;&gt;&lt;font style=&quot;font-size: 21px;&quot;&gt;NtReadVirtualMemory&lt;/font&gt;&lt;br style=&quot;font-size: 21px;&quot;&gt;&lt;/font&gt;" style="rounded=0;whiteSpace=wrap;html=1;fontFamily=Verdana;fontSize=21;" vertex="1" parent="1">
          <mxGeometry x="680" y="440" width="290" height="90" as="geometry" />
        </mxCell>
        <mxCell id="QtaL7ST3ouDVnCg1hJHW-9" style="edgeStyle=orthogonalEdgeStyle;rounded=0;orthogonalLoop=1;jettySize=auto;html=1;entryX=0;entryY=0.5;entryDx=0;entryDy=0;fontSize=21;" edge="1" parent="1">
          <mxGeometry relative="1" as="geometry">
            <mxPoint x="270" y="340" as="sourcePoint" />
            <mxPoint x="330" y="340" as="targetPoint" />
          </mxGeometry>
        </mxCell>
        <mxCell id="QtaL7ST3ouDVnCg1hJHW-11" style="edgeStyle=orthogonalEdgeStyle;rounded=0;orthogonalLoop=1;jettySize=auto;html=1;entryX=0;entryY=0.5;entryDx=0;entryDy=0;fontSize=21;" edge="1" parent="1">
          <mxGeometry relative="1" as="geometry">
            <mxPoint x="621" y="340" as="sourcePoint" />
            <mxPoint x="681" y="340" as="targetPoint" />
          </mxGeometry>
        </mxCell>
        <mxCell id="QtaL7ST3ouDVnCg1hJHW-12" value="&lt;font style=&quot;&quot;&gt;&lt;font style=&quot;font-size: 20px;&quot;&gt;NtQueryInformationProcess&lt;/font&gt;&lt;br style=&quot;font-size: 21px;&quot;&gt;+&lt;br style=&quot;font-size: 21px;&quot;&gt;NtReadVirtualMemory&lt;br style=&quot;font-size: 21px;&quot;&gt;&lt;/font&gt;" style="rounded=0;whiteSpace=wrap;html=1;fontFamily=Verdana;fontSize=21;" vertex="1" parent="1">
          <mxGeometry x="680" y="295" width="290" height="90" as="geometry" />
        </mxCell>
        <mxCell id="QtaL7ST3ouDVnCg1hJHW-13" value="&lt;font style=&quot;font-size: 21px;&quot;&gt;NtOpenProcess&lt;br style=&quot;font-size: 21px;&quot;&gt;&lt;/font&gt;" style="rounded=0;whiteSpace=wrap;html=1;fontFamily=Verdana;fontSize=21;" vertex="1" parent="1">
          <mxGeometry x="330" y="314.5" width="290" height="51" as="geometry" />
        </mxCell>
        <mxCell id="QtaL7ST3ouDVnCg1hJHW-14" value="&lt;font style=&quot;font-size: 21px;&quot;&gt;NtOpenProcess&lt;/font&gt;" style="rounded=0;whiteSpace=wrap;html=1;fontFamily=Verdana;fontSize=21;" vertex="1" parent="1">
          <mxGeometry x="330" y="459.5" width="290" height="51" as="geometry" />
        </mxCell>
        <mxCell id="QtaL7ST3ouDVnCg1hJHW-15" value="&lt;font style=&quot;font-size: 21px;&quot;&gt;RtlGetVersion&lt;br style=&quot;font-size: 21px;&quot;&gt;&lt;/font&gt;" style="rounded=0;whiteSpace=wrap;html=1;fontFamily=Verdana;fontSize=21;" vertex="1" parent="1">
          <mxGeometry x="680" y="190" width="290" height="51" as="geometry" />
        </mxCell>
        <mxCell id="QtaL7ST3ouDVnCg1hJHW-16" value="&lt;font style=&quot;font-size: 21px;&quot;&gt;NtOpenProcessToken&lt;br style=&quot;border-color: var(--border-color); font-size: 21px;&quot;&gt;+&lt;br style=&quot;border-color: var(--border-color); font-size: 21px;&quot;&gt;NtAdjustPrivilegeToken&lt;br style=&quot;font-size: 21px;&quot;&gt;&lt;/font&gt;" style="rounded=0;whiteSpace=wrap;html=1;fontFamily=Verdana;fontSize=21;" vertex="1" parent="1">
          <mxGeometry x="-20" y="440" width="290" height="90" as="geometry" />
        </mxCell>
        <mxCell id="QtaL7ST3ouDVnCg1hJHW-17" value="&lt;font style=&quot;font-size: 21px;&quot;&gt;NtOpenProcessToken&lt;br style=&quot;border-color: var(--border-color); font-size: 21px;&quot;&gt;+&lt;br style=&quot;border-color: var(--border-color); font-size: 21px;&quot;&gt;NtAdjustPrivilegeToken&lt;br style=&quot;font-size: 21px;&quot;&gt;&lt;/font&gt;" style="rounded=0;whiteSpace=wrap;html=1;fontFamily=Verdana;fontSize=21;" vertex="1" parent="1">
          <mxGeometry x="-20" y="295" width="290" height="90" as="geometry" />
        </mxCell>
        <mxCell id="QtaL7ST3ouDVnCg1hJHW-24" style="edgeStyle=orthogonalEdgeStyle;rounded=0;orthogonalLoop=1;jettySize=auto;html=1;entryX=0;entryY=0.5;entryDx=0;entryDy=0;fontSize=21;" edge="1" parent="1">
          <mxGeometry relative="1" as="geometry">
            <mxPoint x="970" y="340" as="sourcePoint" />
            <mxPoint x="1030" y="340" as="targetPoint" />
          </mxGeometry>
        </mxCell>
        <mxCell id="QtaL7ST3ouDVnCg1hJHW-25" style="edgeStyle=orthogonalEdgeStyle;rounded=0;orthogonalLoop=1;jettySize=auto;html=1;entryX=0;entryY=0.5;entryDx=0;entryDy=0;fontSize=21;" edge="1" parent="1">
          <mxGeometry relative="1" as="geometry">
            <mxPoint x="971" y="217" as="sourcePoint" />
            <mxPoint x="1031" y="217" as="targetPoint" />
          </mxGeometry>
        </mxCell>
        <mxCell id="QtaL7ST3ouDVnCg1hJHW-27" value="OS Version" style="text;html=1;align=center;verticalAlign=middle;whiteSpace=wrap;rounded=0;fontSize=21;" vertex="1" parent="1">
          <mxGeometry x="1050" y="200.5" width="110" height="30" as="geometry" />
        </mxCell>
        <mxCell id="QtaL7ST3ouDVnCg1hJHW-29" value="Modules information" style="text;html=1;align=center;verticalAlign=middle;whiteSpace=wrap;rounded=0;fontSize=21;" vertex="1" parent="1">
          <mxGeometry x="1050" y="325" width="120" height="30" as="geometry" />
        </mxCell>
        <mxCell id="QtaL7ST3ouDVnCg1hJHW-30" value="Regions information" style="text;html=1;align=center;verticalAlign=middle;whiteSpace=wrap;rounded=0;fontSize=21;" vertex="1" parent="1">
          <mxGeometry x="1050" y="430" width="110" height="30" as="geometry" />
        </mxCell>
        <mxCell id="QtaL7ST3ouDVnCg1hJHW-32" value="" style="shape=image;html=1;verticalAlign=top;verticalLabelPosition=bottom;labelBackgroundColor=#ffffff;imageAspect=0;aspect=fixed;image=https://cdn1.iconfinder.com/data/icons/bootstrap-vol-3/16/filetype-json-128.png;fontSize=21;" vertex="1" parent="1">
          <mxGeometry x="1160" y="200.5" width="45" height="45" as="geometry" />
        </mxCell>
        <mxCell id="QtaL7ST3ouDVnCg1hJHW-33" value="" style="shape=image;html=1;verticalAlign=top;verticalLabelPosition=bottom;labelBackgroundColor=#ffffff;imageAspect=0;aspect=fixed;image=https://cdn1.iconfinder.com/data/icons/bootstrap-vol-3/16/filetype-json-128.png;fontSize=21;" vertex="1" parent="1">
          <mxGeometry x="1160" y="330" width="45" height="45" as="geometry" />
        </mxCell>
        <mxCell id="QtaL7ST3ouDVnCg1hJHW-34" value="" style="shape=image;html=1;verticalAlign=top;verticalLabelPosition=bottom;labelBackgroundColor=#ffffff;imageAspect=0;aspect=fixed;image=https://cdn1.iconfinder.com/data/icons/bootstrap-vol-3/16/filetype-json-128.png;fontSize=21;" vertex="1" parent="1">
          <mxGeometry x="1160" y="430" width="45" height="45" as="geometry" />
        </mxCell>
        <mxCell id="QtaL7ST3ouDVnCg1hJHW-35" value="Dumped regions" style="text;html=1;align=center;verticalAlign=middle;whiteSpace=wrap;rounded=0;fontSize=21;" vertex="1" parent="1">
          <mxGeometry x="1050" y="510.5" width="110" height="30" as="geometry" />
        </mxCell>
        <mxCell id="QtaL7ST3ouDVnCg1hJHW-37" value="" style="shape=image;html=1;verticalAlign=top;verticalLabelPosition=bottom;labelBackgroundColor=#ffffff;imageAspect=0;aspect=fixed;image=https://cdn0.iconfinder.com/data/icons/octicons/1024/file-binary-128.png;fontSize=21;" vertex="1" parent="1">
          <mxGeometry x="1160" y="520.5" width="49" height="49" as="geometry" />
        </mxCell>
        <mxCell id="QtaL7ST3ouDVnCg1hJHW-38" value="" style="endArrow=classic;html=1;rounded=0;exitX=1;exitY=0.5;exitDx=0;exitDy=0;entryX=0;entryY=0.5;entryDx=0;entryDy=0;fontSize=21;" edge="1" parent="1" source="QtaL7ST3ouDVnCg1hJHW-7" target="QtaL7ST3ouDVnCg1hJHW-30">
          <mxGeometry width="50" height="50" relative="1" as="geometry">
            <mxPoint x="980" y="490" as="sourcePoint" />
            <mxPoint x="1030" y="440" as="targetPoint" />
          </mxGeometry>
        </mxCell>
        <mxCell id="QtaL7ST3ouDVnCg1hJHW-39" value="" style="endArrow=classic;html=1;rounded=0;exitX=1;exitY=0.5;exitDx=0;exitDy=0;entryX=0;entryY=0.5;entryDx=0;entryDy=0;fontSize=21;" edge="1" parent="1" source="QtaL7ST3ouDVnCg1hJHW-7" target="QtaL7ST3ouDVnCg1hJHW-35">
          <mxGeometry width="50" height="50" relative="1" as="geometry">
            <mxPoint x="1000" y="540" as="sourcePoint" />
            <mxPoint x="1050" y="490" as="targetPoint" />
          </mxGeometry>
        </mxCell>
        <mxCell id="QtaL7ST3ouDVnCg1hJHW-40" value="" style="shape=image;verticalLabelPosition=bottom;labelBackgroundColor=default;verticalAlign=top;aspect=fixed;imageAspect=0;image=data:image/png,iVBORw0KGgoAAAANSUhEUgAAAI4AAADtCAIAAADm/9qrAAAgAElEQVR4Ae1deXxTVdpOcm+WpgldgUJZSkF2EBi24ZNVBlCYURFFwE/WkUXmA1l+DD9GkQFBHdaKLAMoDouIsoosIlIUVKDMFBTKJqWUllKgC23Wu+Rr8uA715s0TZp0g+aP9tybm3vf+z7nXc97zlE4qj9VhAOKKkJnNZmOaqiqTCeohqoaqirDgSpDaLVUVUNVZThQZQitlqpqqKoMB6oModVSVQ1VleFAlSG0WqqqoaoyHKgyhFZLVTVUVYYDVYbQIEsVz/MOh0P6VxBEQRCqDD9KSyjHcQ6HQxQ9vKwoiqW9629+F0yoOI4DWYIg5OTkONuiw2634yTw+83DH5YDvKMgCDzPi6Jos9kcjgcvjpNBedFgQuVwOARBMJlMIP2268NxnM1m89jdgvICleEmoihyHCcIgs1mQ4PjOLvdbrFYgFlQiAwyVBaLxWazmc3mbdu29ezZs3///ikpKZydKywsDJYeCMprB/cmguuTmJg4Y8aMDz744N69e3a7ned5QRBI0wT+xGBCJQiC3W7PyMgYN24cwzAqlYphmISEBFEUQfrDihYUfuvWrZVKJcuybdu23bt3b05OLs/zHMdZrdbAcXI4gjoKLAjChQsXunfvrtFoVCqVVqvVaDTvvfceetZDbKs4jrt7967BYGBdH5VKpdPpnn/++eTkZGjFCoZKZn44jrt9+3bnzp1VKpVSqVSr1QqFQqlU7v9yP8zsQwyVKIoWi6VJkyYKhUKr1SpdH5VK1ahRo/379xcUFIBXhYWFwKx02iUgBchzPGTcbrdfvny5c+fOarUaIqVSqRQKhV6vP3/+PBzZhxgq2KpJkyYplUqdToc+qnZ9atWqtXz5cpvN5uSUy3qZzebSCVnpoSKpslgsoiiOGDGCZVmdTqdUKkGrUqls3LixxWIBSKXrSqV7q3L+FTzyQ4cOMQzDsqxCoQgJCVEoFDqdTqPRMAyzePFiu90OD7nUPmHpoaLQwWazzZs3T6/XK5VKhmEUCgXDMEqlUqVSPfnkk/CCypl35f84nuezsrLi4uJUKhXLsnh9lmVVKpVGozEYDAkJCXAx7HZ76XICpYcKUmU2m3fs2KFWq7VaLToRVJ9CoWBZdvLkyXD/HmKRgqzY7Xar1Tpw4EBoFIVCAUMAu6XX62vUqPHvf/8bOrA8oHI+w5UlAU52uz09Pb1z5y6k90Ao9ADLsitXriQd/RDbKgDA8/xf//pXeFXUX+lQp9PVrFnzwoULSAig74qiiASHL2rAD6kCQQAJhpTjuClTpmhcH3Qf/IVzYTAYDh48CHlHPO8LQVXxGuL7tm3bIEwKyUelUsHFUKlUw4YNM5vN4B74SYm3El/cP6iIJqvVKori4cOHGdcH2hkmCmpaq9XGxMRcuHABpIjOT4nEVNUL0H05jrtw4UJISAj6K4GFQ41Go1QqjUbjjh07kCugru+jvvEDKqnrwnHcvXv3BgwYgC5DLh/IQp6ibdu29+7dA6jIOldVKEqim6Aqyqg1b94cnZWgUigUYAiirscee+zGjRtwCBFx+mi6/IFKdGZjHQ6HU9sK4o4dO2rUqIEEEpEFHQ3xGjZsGAjCmz7EYuXSGU6rIwjCa6+9BqgQtIAzECk4hyqVau7cuTzPS4OtkjqD83s/oKJUvyAI+fn53bp1Q2ROrrlCoUCSQq1WF0nb22+/TaM4NIjlC01V7hpABXu8Z88elesjhQpn4GLodLqWLVtev34d/V5wDuj5ZBv8gIqGzgRB2LhxIyk9EikEVSTvX3/99UMsSbL+RBHuzZs3jUYjTDg4I8UMzFGr1StWrADAGCiR3c3joX9QIfGam5vbr18/mCV3OkBNjRo1rl69+ohABVuFAMtisbRp0wZiRJ1Y2sBX3bp1y8/Pd4qU6+MRG9lJ/6AqCh2sVuvJkyejo6PJ35PSAcFiWbZFixYIIGTPe7gP0ZWlgbCUOWjDYjEM8+WXX/ro+4FpfkCFTBfP82+99RaskcwrhTwhUH/qqad87y8PA34ucwPPYsyYMUCFVA41KEWAGMtqteInvnDAP6gcDofJZGrTpg1pPxkRIEWlUo0fP/7hdtBlzIWqx9833ngD2gXMcffdlUqlRqN57LHHrl275nvxhR9QWa1WjuMSExMpSpBJlTRX++abbz5SUgWQeN5pexISErRaLfw9cr6kfRoBVnh4+MGDB33nkh9QIfE6ccJEdBNKc5E6pqCKYZhVq1Y9Ij4FxIteluf57du363Q6ZHAAFbGIGnAu5s2bhxypTEY9HvoBld1uz8zMbNq0KToIBmbo2dRQKpVarfaTTz4h6j0++CE7SRkHQRD27NkTGhpKXVkmT2AUUgd9+vRBhZMv3PADKrPJfPz48bCwMMTehI20AZWo1+sPHTrky+MfjmtkSuzQoUPh4eGEEDVkjFKpVNHR0ZmZmQSzd274AZUoimvXroXvV5xIIfTT6/VHvzn6SEmVlMuHDx+OiIjwiJAULaRPd+zY4aPL7gdUDodj7NixarWa3D/pg9FmGEaj0eh0uiNHjvjYWaQvWeXbLpf9q6++CgsLk/lcUl4BRXTrCRMm+NinvUFFQThxsH379jqdDkGc9NnUhoIOCws7cODAo+Oso1Mit8Tz/Ndff200GlFo5tGtAIrwOzp27IgRLGJycY0SoMLPMBSWlZUVHR1NhsqjgJOt2r9//6MDFbiE8VyBFw4ePEg1gZQWoN6MBmXf4+Pj09PTnWCXlLMtHirROa+BoBJFcc+ePVLV5wUqtVr9ySefBLEGuLiOVnnOQ7Dwd9euXQaDgdKA5ApK0aIMXFRUVFJSUmBQ/coGAmzmzJnI+xXXUyDsKKx4//33ZX7Rr/d7OP/DNQCv1q9fT9WAxfEKUKnVaoPBcOjQoSBARey2WCzdunWjFG1xNhOmkmXZ2bNnPzoKENUs9L7z5s2Dh+xRnqSyxbKsVqvdtGlTEKCiLH1WVlatWrUoK4xiP+lT0YapZFl2xIgR0uAOmuHhFCjXVCVIFcwVBoLdU38ydiE/x7Ls4sWLwWfv/CneVrl+h2SiKDrOnDlDbrrske6HarW6bdu2ZKs4zlkw7Qs13mmttN/CVaYqrj/84Q/FaR0pryBzLMvOmDGDtJeXdywBKgy08zy/Z88eSIxHbwIUQP8iTRkZGfnLL7+gr0mH7b2QUrW/chWeCIJgNpvj4uJ8gQqcVCqVo0aNCgJUVFO4evVqMlTSriFtkwOKiujVq1dLQSL3pGpD4ol6qHfUVhw6dAg14V76NKXbUYP8xz/+MQhQQaqK6s7nzJkDcfFOAY2DMAwzaNAgu91uMpk8vd1DdU5akDpq1ChpSCPtytI2tB9mjnTv3j1QqKC+7Ha7zWZ7+eWXfaQA8QTDMLGxsefPn0d1LVyMh1WwqA4wIyMjNjbWF0ZRElWr1bZv3z5QqPB7juPy8vL69euHeQ1epIpIREOj0SQkJNCEkYcVJ/jo8KE+++wzyidJZci9TWxUqVRNmzbl7M5Z385CGtfgJAyHTPN4cysAFc/z+fn5Xbt2xRALPcPj42Vo9ezZ02w20wwD2bMfmkMwymazjRs3TqvVunPG4xnwSqFQxMbGWiwWMng0DUvGH29QAVsUaDZu3JgyJR4fTKZSipZGo9m9ezfm3D/EUuVwOCwWy/3795s0aUKTzIrjEp2nuoeoqKi8vDzwxwuXvEFltz9Y4eTmzZuRkZEyeZIdeoSKZdnmzZunp6c7HI5gTTSX9bXKcIiQcdmyZdKSCoLEYwMdGp5aREREVlYWFKkXo+UNKvxMEIRTp06RGaQH+wIVZrC88847JOCVgbNBp0EQhIsXL8bGxmJuPbHISwPcg6KqUaPGlStXnHER51xMBt6cO5HeoILS5Hl+9+7d7k/1BSqEYo899lhGRoas4M25qs+vmXt3sir5GcFVZU4qi+O46dOnowCyxHySlJOQqpCQkHPnznGuj+PXORzuHPAGFTIlgiCsWLGixMyjlAJqQyEwDNOnT587d+5IM0w2m62KJgYRRVksFqzOw/P8qVOnGjRoEBoaiiVG6PW9N8io6/X6n3/6mdyK4tjiDSpSgAsWLCgFVCAFobtarZ45cyZK6Xmet5idiw9V3egYqVGz2SyKYmFh4ZNPPknTcmCzvYOEb4MJFQwdz/PTp08vBVSUfcf0yqioqLVr16LqHR2ziipAmBOE9vfu3Zs2bRqWvtFqtQzDYBmEioFK4IUJEyYgY+QLBXQNtLbBYFAoFFAOarX6008/xfTKKu0TunByDpF/8sknRqNRr9crFIrIyEiaYUZM8NIIvlQJgjBmzJhSQCWVKqy0wTJsrVq1PvzwQ+e6I5xzkceq+IEJt9vt27Zti4yMhOsED5lSoF4Qoq/KBKoRI0aUDirK8FLSvWgkzWAw/PWvf83PzzeZTFIdSANadFI6P7UCQQU2yFxjZUZRFA8ePFinTh1M0pZyn9reG3DTgZbBYLh8+TIN7zkcDr8TS7BVgiAMGzasdFBRx0ED9Ol0OrVaPWTIkJSUFErmwgCAKVi3iQCrQJDwaNBD/nBBQcGuXbtq1qwZFhaGxV68o+LxW/RdMCQ8PDwzM1Ma/Hp0Ar15gATViy++WDq3QgYVIg/UyRTVFDRu3Hjz5s2i4FwtkBwNIIRcdSVBCwvFQcTz8/PffvttvV7PsqxarYb28whGiScJLWdiKTcPUayXVy4BKnSl559/PohQgUT4GkajcezYsWfPnrXbnYP6iFQQYFa4MBEBAu9cktJkMl25cmXkyJFqtZqKZ2n9qxKBcb8A/VihUERFReXm5kqlih4tbZQAlehaz/nZZ58NFlTACWP/lK+Mj4+fM2fOtWvXaAE26fCxlNzyaLvSKGAc/gKnNWvWNG/enGEY1JhAqrwUGrtjIztDXbZmzZq+zAv2BhUIFQThmWeeCQpUtJ4jNCHVyOHlGzduvGHDhrS0tAcpFlclUHlg8+szSPeS+hUEwWKxJCUl9ezZEw4trfbgnleTIVHiIXLwSqWybt26yJGSY/UrRb/57w0qCoH/9Kc/lc6tKJFcXID+hakJLVq0mDFjxo8//lhQUEADXSRkUMi/+iDOvoTkJpiLNyOBoEO8CAHgusD55W/POE2my2A4l3fmOO7+/fs7d+4cMWJEREQE7D/6a+Ag4a3hHjMMEx8fD5p/g4zbQclQCYJQagXoF1RgBPxDtVrdq1evtWvXZmVlobPzPG93fShXRvlfmH0snE3oIvfj7u4TPGAF50pmOyRKD4M1GzdurF+/PuZSgDBa96Z0CsYjK5AzbNmyZXCgEkWx1G6FR/o8noSNBTtgwyBqderUGTx48OLFi7/66qvU1FRaFBuMhidC8gGZo0NgTE42UCQsiTu4LDc3Nzk5eePGjePGjWvWrBnDMMCJjD8hFBSpwk1w83bt2hExbrL03xM+SVWpnXWPqHg5qVarWZYlD5iKeTUaTVhYWP369QcOHLhw4cIff/zxzp07hYWF0gLeB5bGtWYHMo2YZ242m7HmAC6AAGEdKqvVmpaWtnPnzmnTpj3++OMRERGhoaHQw3q9XqPRgFQCCcZVeujlXbx/Ja2U7tKlS0BQuX78QJu/9NJLQaHPO/XScWQSL5ykZTKg31mWDQsLe/zxx5999tkZM2YsW7bsk08+2ffFvsSjiUlJST///HOK5HPx4sWff/75zJkzx44d279/f1HWbsmSJa+99tozzzzTtm1bhLFYwpq8O0qywBcnMYIQ0GGJr+PlAkCFvz179gwcqgercb3yyitBoc8L6dKvvDyLzDs14EdpNJrQ0NDIyMiYmJh69eo1kHwaNmxYv379mJiYyMhIo9FIY+rEdzxO9tcLDVJSS92mp2s0mkGDBgUNqrFjx5Y16T6+MwwY4UTdn94cU1Gkf+mr4ho+Pjrol4GlGo1m8ODBgUPl3N5IEITJkydXEqjc+VUcAL6fd79nOZwBP+EBDhs2LCCo4HkgKJs1a1b52KpS8KhESEpxz3L4CeJUaO/Ro0cHCSpBfOutt6oQVOXA6MAfQR6gUqnEJPsHDup/nXN5qwRnHUHJ22+/XUmgqqIy5A4tElSQLaxGHxBUkEqe59esWVNJoHJ/56p7BuaKYZjZs2cHpgBds+uRZNu8eXOldSuqLlQUI86fPz8gqPBjUXCGVocOHaqGKuh9AiGHWq32cTUCb7YKaBWla5OTkzG7P+jkPso3RPCn1Wo3b9ockFRR8ZcoimlpaeHh4Y8yW8vi3ZG1CgkJ2bVrV6BQoYamaJn3O3fu1K9fH95XWRD9aN4TQRV2TvE+qAi3vVgFSOM6giDk5eU1a9YMZvDRZGsZvTXyzseOHXMOwj1YJUkeTtFxsVBR2ZsgCAUFBR07dqyGKuiAsSwbGRkZhDWWaNp2YWFhnz59qqEKIlSIU5VKJTa1ClSqUNGA/c4wEFztsgcLLcoB1qlTJy0tLThQoTZv9OjR1VIVLJyoml+lUjVo0CArKysgqOA+QgcWzQb429/+BqiqBStYgMGjbtGihY/zzLy5FQ9CYNdKCsuWLauGKlgg0X2USmWPHj3cy6rI65M2vEEFkYLF+vjjj1GdUi1VxOgAG/Ashg4dCj5LUfHY9gYVQEJ0tm/fvhJXLguQ9Efq5yi8USqVr7/+utNQ+fDxBhVAwh7Mp06d8n09wEeK6aV+WZTOLVmyJAhQAWmUV1y9ehW1PtUDV6XGRvpD+BQMw2zbtq3EQUUA4U2qpGWq2dnZMTEx5FlUWywp30vRRumVRqM5duxYEKCCPMEPtFqtnTp1ooxtNVSlgEf2E8zTSktLCw5UuAuM1nPPPUfTidApZM+uPvSRA+jxLMvWq1fP9yWNvClAgXd6Ji6pcvCcc4N2jIbRvCgfKau+TMYB6CSGYTp06BCcPexxF/y12+3r16+nwn/URskoqD70iwNqtbpfv35YzMgHX923LZxhrk6ePElTQn1fnsYv6h+Ri0mqXn75ZbH49a9k+HlTgHQpoMrOztbr9eQEPiJsLbvXZFl22rRpZQKVw+Fo0KAB5j8BsLJ7jYf+ztBP2LcgaCHwr56FU7T+53/+B/vWV3uAAXYmTLjbtGlTcNwKmQIUBOHFF1+sTi8FCBJ+rlara9Sogc1mgylVhNmUKVNQaFgdAgcIWNF+vLVq1Tp16lSZbOHscDjeffdd5NerPcAAoWJZNi4u7uLFi1arNQjZChImamzbtk2v11NdQIDkPso/V6vVrVu3vnXrlo9DwA6Hb3EVoLLb7YcPHzYYDJhE/SgzOvB3VyqVPXv2LCgowFx/EgYvDZ/iKvzeZrOdPXs2KiqKZZy7KQRO7iN7B+QAx4wZQ6vceEGIvvIDKlEUMzIy6tWrh72HH1lGB/7iGAKeP39+WUElCML9+/c7duyIRbt8oRjhF9xFdCU4kPitNPGBKz1OnYdpdA+6aUTGF0poUQzEnrQVDY2U4m7k2UoPZZRLX4pewTsxMuJRrb59+3Zs1hJ8twIrYmLFTXolL2wi7iMfTy8DocRqtrgG2KvVao3rQwuK4Fsqv6E7eHmol6+I42hIyQN+arVaq9ViQUbCQKFQaLVanU5Hs3cJZroPNYp7upRduFir1f7www80MYC0nJeGHwoQ84LnzZsn6yPF0YeOTOu6gB3gO8MwoaGhERERtCJIw4YN4+LiGjRoEBsbGxMTU6tWrfDwcJ1Oh6geiwZAvLw8zvtXxFDggR3ZQI9Go9Hr9WFhYaCnfv36DRo0iIuLa+j6xMbGgp6QkBDMtMGvsP8R5QSkeMgokX4FMqKjo7HSly9zQICfH1BhJ6rPP/8c/VFGjfshxBw6DXKj0+natWs3bty4pUuX7t69+9ixY8nJyefPn79y5cq1a9dSU1OvXr2akpJy9uzZH77/YdeuXe+///7EiRO7detWq1YtWjVE9truzy3uDHiEHoP1k1iWrV+//pAhQ+bOnfvpp58ePXr0zJkzFy5cAD3Xr19PTU29du3a+fPnk5KSjhw5smXLljlz5gwePLhRo0ZY5Uen0+G2+Fvco6XnwZB27dpBSyEV7kWY6Cv/oOI47pdffkFnlz6+uDbW/9LpdOHh4cOHDz916lROTg6Vvf26rJ8gutawgjbAJnQ0VAZCr1y5smDBgmbNmoWEhNDO7MU9tLjzxFOFQqHT6Tp16rR27VqTyYSVc4kjWA2NVme12WyiKFqtVqdX/eu8mry8vE8//bR3794hISGUFJX2oeJooAW1nn/+ebwvUqz0dC8NP6ByzowTRJvNBieQDLIXshiG0ev1s2bN+vnnn7F8GEgRXdufEGZEn7s2IMxEUUxNTV28eLG/04cg3DA5UKR/+tOfvvjiC5PJhMdJ+7WsTYQ9IFsUUWoHdO/evbtv35dPPfUUOEB2wTtm0EkzZ84kQxV8t4JywE888YR3HUj9t06dOkePHrW5PrLX9usQHMTfixcvdunSxWg0YukHLx0FX8HCYS6zwWCYNWvW/fv3ifV+kUEXFxYWYu1h54KSNvvkyZNJE5ZoUOGpr1u3jl6Kbuu94YdUYXKcw+EYP368d4IAlU6n++CDD0iYLBaLj93HC8VYUPPrr7/GBhwl4gTXBuZBrVb37dsXxhw5Alrq0csT3b+CNCDNioUHs7Oz+/btSy5iiVRFREScOHGiuI363J+IM/5BhXdbvHgxXKDiaAJUMTExFy5cwMqJxa3IXxxZxZ0Hm/Lz81u2bOmLBpaGUyzLbt++HVEn7k96orjHeTyPMQtSlaLoXPT23XffhXalBR+lzJGqRKVSGRcXh/2t0XfLZBAEgrVr1y5K2koJojagioyMPH78ODZrQQlVoFIlOldS43k+IyMjIiICrKGHFteACUHfmj9/PpZUpZVUfWSTFDO8BToN5gna7fapU6eSUfSicuB/du7c+fbt2zDVBLn0ER7bfkgV6daTJ0/WrFnTC0GAimGYESNGQFHQ0s0eifBykh4KgcYap/Pnz/d95wAQAwtRr1695P8k0y5n7l6MF0qkX2HtAfQbnueTk5MbNmyo1WoRk0hlSNaBEP4//fTTZC99nLHjX2YdbqXFYklNTW3SpAmFfjJqpIcajWbkyJGXL182FZqwjRqJPJQPIUHuEDhCTMRC0NCfVqv19u3sf/zjHzVr1kQA64UpUjLQhivUsWPHxKOJ9+/fB2B4kNQVdBd92RkIIlxBk8n0zTff1K1b17uhIjrRv6dMmUIvKO0B3tt+SBVBdefOnY4dO5IZcGcKnUGiqGXLlm+88Qa2E4SQQUSkhdYPqHQtoi09jyvtdnt2dvY///nPXr16GQwGFPn6qACJGEClUqnq1as3evToY8eO5eXlgeNQ7Fi0mFQiqSZXwyGl2WazFRYWJiYmjhgxIjo6Gr4oOevuRpTOYGB29erVMvi9g4Rv/YAKpPM8b7Pahg8fToqFeOHeQG/CKthhYWHPP//81q1b09PTc3Jy7t+/L90tnfQkPcVkMmVnZ2dkZBw/fnz27NlNmzbFE2vUqAHD40UDu1NCHYu6P8Mwffv2TUhIuHTp0r179woLCxEtQa1BytHmOA7xhslkunPnzr///e+lS5d26NBBpVKFhIRAu1CJuMfSY0CFHJtSqfz222+l2PgImx9QUXfjeX7hwoW+QAUvGd0ZhOp0utjY2N///vfDhg2bNm3aokWLli1btnr16rVr165Zs2bVqlUrVqxYtGjRzJkzhw0b1r9//yZNmiBVCo7Av6K8oi9oEZ1ogGvOEjnVg1xVdHR0hw4dBg0aNGH8hLfeeuu9995LSEhYvXr1mjVrVq5cuWLFinffffdvf/vb+PHjn3766ZYtW0ZHR2MvJCkZsqd47CugNiIiIjU1VQqPtC2FUNb2Ayr6JcdxX375JeSdtLA7ceQRkfgjT8qyLPYLpp8AS/qL82q1Gn4mub8atYZhGKPRqFQq9Xq9jyEwMRG3xd1ANr5CNg/1jciaYwY8kQ1B0Wg0oJ8S/9iuT8YB2aH0HXGfLl26UKKEWOpLwz+oyAhfv34dNgP8JYLcG6TBZRKAH0Ls8BdqzalJGJbYhDenQ9zf40npV+B1cVyDNEAl0l+inAiTSiF9S9fTzfFeuFh6mbRNXGIY5n//93+hXX2BR3qNH1A9cFp+tfytWrUivS9jpZTKcmsTZ+EQ45AYWm5kFPcg0MOy7HvvvUcOixSJEtv+Q+Xaq0gUxVGjRgEq+M3FkVhu5wkbtVqNoWqSnnKjwfuDdDqd0Wj89ttvyxwqStdjx5uVK1ci9gZUFS5YgAr2YMqUKU2aNKGSRe8cLIdvwRydThcXF4c8hY+uhFTU/JAq9AVypr/77ruwsDDSgRWuagAVTOOCBQtmzJgJp7EckCjxERRd9O7du6CgQDZCJsXDS9s/qCi5brfbr1692rhxYxjVChcpCpsg6O+8887FixcjIiJKZGL5XEDR+pgxY5AlKVupkgIuimJ2dvbvf/977AOOILd8Xlv2FDJR1GAYZtGiRTabrWvXrpT9qlihJzd4+fLlvtdoShnudw6QfiyKotlsHjlyJLpzBS5CTAihgSBpwYIFDodj6tSplQQqmkO9f/9+yiQQM31s+KEApXdEZLB48WJkrL3HMTI5CO6hDCqFQqHX65csWeJwOHbv3k2Ds5VBqtRqNfIUpdB+AUmVIAj79u0jkCqKFzKokPJZvny53W6/fv16gwYN6ILgdhG/7gaL3rFjR9pNV9rvfWwHJFXp6emRkZEVG1cREmho1JqiBWETEhIwbvLqq6/SBX4xN7gXw9mZNWuWv4P0UhRLCRUeKQhC3759EWlWEqmCrVq7di3WiT98+DAVf3nMeQcXkuLuplQqNRrN7t27MYAgBcD3dumhwjMWLVoE96Yy+OsAQ61WAypBEMxmc7t27WCxKH1XHEPL7rxSqYyKisrOzqZaOd8RoisDgorjuBMnToSGhkLJlN2r+n5nuDlr166lgfDXX38dFKIzVQD3zh4AABwjSURBVIj0azSa3/3ud87sgasAsnROYKBQZWdnN23aVK/X+87NMr0Sudq1a9dS+cO+ffuMRiNNcSjTpxd3c61WO3r0aBq6JEHxqxEQVDzP5+bmDhgwgIaUiqO1PM9rNJoNGzaAC6Ig/vLLL5RVkQ3ElBtVLMuuXLkS7h+Ju184ld5Zf8AI0VkXPW3aNLjs5fbm3h+k1+s3bdpEY0IWi2XIkCE0GFYhCtBgMBw9elRalOAvToFCBSO5adMm2HNyi6nhnadl8S18LSzdgaEAnue3bduGfAotv0sUlh1ymK2FweWYmJjMzEzED6WLf4MAFc/zp0+fxti89P3RLgswvN9TqVRqtdpNmza5BkKdfddut9+7d69JkyYUVMjo9H7DUnxL98ewA8MwQ4YMKSwspAindGgFZKtQOXv//v2IiAi47ERlBUKl0+m2bt3qGqxxQoXB64kTJ0pH1qV0lgKMEn9CAw4IftetW4eKORBTAVARIwYPHlx5oNLr9Z9++ilBxfO82Wzev3+/Xq/H3CwpTmWkAGlUU61WG43G8+fPo74YIJU3VBhj5FyfXbt2wW6XAxe892ilUhkaGrp9+3aXoXJKFbz2a9euNW/evDxtFcI4hmE6d+6M+XTUs0vhUwRqq/Bsnufz8vJq1aoFRlDyokLyF6g7++yzz6i8ADonPz9/6NChHt0f79iX4ltIKkyjSqWaOHEileyDmAqACoIFLfzkk09CQcOWVpStUqlUOp3u888/B20EGMdxGzZsIKhKAYC/P4EvqtfrP/roIyKmdCDhVwG5FZh2YrVai/TMnDlzqCoGytDfdwvK9e5QUa15WlpaWFhY+dAGjcKybK1atU6cOFHxUNG8a0EQdu7cqdPpkLYgNR0U7vt1E3eowCZMWHvxxRehn/26p78XQ6OgDrVly5aYJ1k6V0IqhQFJlcPhgMG02+2XLl2KiooClaQD/X3JwK/3CBXUIPoT+WaBP6u4O5CtYhhm3Lhx8GsqGCpkiJGzsFqt3bt3p8GhMnKCi+MOnfcIFfqTzWa7ceNG48aNy4E28q127dpVKaCSiqcoisuWLUN5fgUqQCy/8OWXX6IDkVsBNXjr1q0//vGPSDIFsUpQFqKgK6jV6iZNmty7dy9weQqCWyGD6uLFi5imoVAoKirX7g7Vg2jGtYoJz/NLly6lYv9giZc7VBg2GzVqlPvaHFKm+dUO1FbRw9Btu3TpotVqK7Dawh0qqVthMpmSk5Olc86DgpY7VGq1mmXZzZudm9NL5/QTu0rRCCZURZs9T58+HVSCejIh5dZwhwqcIrNqNpu7d+9ONXFBidNlUGEGY926dc+dO0djMaXARvaTYELlcDh27NgRGhqKmW5B4YK/GLtDhRemaaM8z69bt066kpy/j3C/XgYVJLVPnz537951TaL9dWkmGe/9PAwmVDzPnz9/vn79+jSOV9xbUXBDwhcsXN2hwlpbxBasFYo58X7N6gEAHumUQYXXnz59OvpH6SopiGBqBA0qWO/8/PxevXqRyy6DCukMWPXQ0FC164MEjHTas+xXfh26Q0WvigbmYA8aNIiy7CXeH2WgoNAjVNI70KTHr776SjZlX0aJv4fBhEp0jd8nJCTQvAzpOyD/hjo9pVIZGxv7yiuvYD5vED0RX6ASRXHx4sXIJsgo9HhINMfHx0dFRXlHCxJWr169nJwcrDxDS9P5i43s+mBChU6UlpYWGRnpcdU+6BDkMnQ63TfffNOqVStiWVCcsRKhwrjwiRMnsGuQd74DOXA/NDT0zTffDA8P9wgnnYRUjR8/HnF3sLRfEAZBpMgjw89x3EsvvYTJPPQC1ED2XaNxlitv3rx59uzZ9BUgpMPSNUqECoFOQUFB69atfUzdojM1atQINfre6YQ+T0xMpIGPYIVWwZQqTJQTBGH9+vU6nc7jYgW0rqlWqx07dmxSUhJUil8W3guKJUIFDvI8//e//93Hh2K92o8//hjDKB7fi0hSKpWtWrW6ffs2pIqSJtI+Xbp2kKGCYJ07d65+/frurwRtQwqwa9euhYWFECxaTkLmTRELfGxgweD9+/djY7zikjocx2VnZ2OxEPc7k9xA7DQazYABA+x2O8ro6Fv3H2Ili9GjR+fm5sLPqqQKEGOMdjuXm5vbv39/9zeRFaLExsZmZGTcvHmzVatWwap5wmq5U6ZMWbFixbp169asWbP6t59Vq1atWbMmISHhnXfeiY6OBkkyUqXEqFSqiIiI3bt3FxQUDBw40KNtg32iBb7Xr1//QOm5Aqriuou/slUmUiUIwvz58xE8eXQWoFKMRuPp06cdDseCBQswRVUmUh5/K2Or7JAEl2GYkJAQLBqDqAB/9Xo9LUpD4Z3sJnQIDAYNGnT//v2srKy2bdt6SfJilRhal4dUX2WECkkUGIPTp097nDFI3EH3R2nR5cuXmzZtSgviSAEjrvnYAHORN4JwkHWkBqUo8UTZndE/qDIiPDy8aD0um832008/YUBOdj0OaUx1yJAhxAfK6/srQB6vD6ZUIdvmrMkWHVartU+fPvCdimN9Ubzy9ttvo5hw5cqV0nm79BOPfPFyEj9EYEdhgPR6IAEUvUzjwTQFrVY7efJkLFv20UcfIQLxqANxMjTUsHfvXqkYVVJbhU4EqbJarRs2bMD6/pAkYhw6PsrcX3jhBaxNKooioCWxIPmTMtqXNrkzHnlK6xIUl62gX+l0umbNml29ehWrnv75z38u7ickvi1atMBqyoFMefMoUkGOqx6MDIlOY2q32y9fvhzXMI5eT+Y4AZKuXbvSIv67d++G4w5eE8d9gSeQa0iC0UD2C9Z02bJl8CQLCgri4+NJFt0fh+TTxIkT4VsVx+5AzgdTAQIqivjMZvNzzz2H13PnO6CKiIjIycnBkHZhYeHQoUOJHdS73fkS3DMyqCB2LMt2794dOPE8/9NPP3nRlqBZo9Hs2b0nWKNT7qAGGSoypBhSW7dunVKpxAC5zJ0DVCzDfvbZZ3CWRFE8e/YsHGjgJBPE4CJEd3OHSqfTNWnSJDn5wYLEdrt9w4YNgNBjB1KpVFqttl69eunp6VJD5c7uQM4EEyqp7MMLunHjBiZ3uk/AAlQMw4wZMwavB3EcOXIksnPlNuQvgwoQLly4EIv5w+sZO2YsbKfH3oPgDKMetLZRIKh4/G0wocLQOAkW6sWx1QEsFnVk8tCKMoFNmjTJuZeDiwVBOHz4cHh4ODYnkAmi9OdBbMugQpV5dnY2tJ/dbs/KyurSpQv6lkc1iEL5c+fOkYvkkdcBngwmVDJS0B/PnDlT3BQMin5+/PFHSCT2aGnbti18ZUKUIqEgIkS3whgHle7Url375s2blBbCeGlsbCytV0sdiKqJ1Wp17969ra4PZWll3Aj8sAyhgiooWom8R48eVCwu68JwN9avXw+JtFqcrztmzBhKCdIol0cjQewOpAGSEA4X/f373//OcRy26z19+nR6evrmzZs9hvOgDWP/8+bNg98bxEBKhm7ZQoXs8ptvvoktr2Q4QaWoVKrx48ebzWYsXGe32z/88EMEYbSpI8WtgUBS3G+JqqLVSvV6/a5du2jS7sKFC6dMmTJ8+HDU9kjvgK4DxVCzZs3jx49j/hJZARmjAz8sW6jg2p04cQKbMBBTqIFtpX73u9/l5uampqZOmTLFbDZjyw+gBY5QnlfKrGC1ycFhWdZgMJw5c+b+/fuCIFgslpkzZ6pUqtDQUHqWNL2Lt1AoFD169MjPz38w5utwblwSODDudyhbqDDxv6CgoH379hhQIJCoodFojEbjuXPn1q1b16NHD1EULRbLsGHDVCrVgAEDWrdujZEFOGBkJ4h3gTcAVVRUlMFgqF279tWrv6DygOf54cOHg2zpHDqpZwEDtmrVKjixzjEgV22oO6MDP1O2UCG64nkeg40EDxrEfZZl586d++yzz7Zq1Qo6c9++fTVq1Lh06dKmTZtCQkIQuMhQCRZsqG9Zvnx5nz592rRpY7VaMc9HFMXevXvTqvC/SYwpnUfAODY2FjsxoF9WpRBY2n2gCopKOQvuF7Rp0wY9FH+pegnGOSIiQq/X161b12azi6KYlZU1atQoURSvXr2KPTEJV6QGwKbSoYVf0V49DMM0aNAgNzf3lVdeeeGFFwgnQRDat2/vMbyjJL1Go5k+fXrZuRJSZpatVOEdYGnnzp1L/i7QgpRIXbtatWrdvn0bc4F++cWpiHie79WrF3Vh+glCUZQ6yaStxEO4ndBp+Dt27FhRFBcsWLBo0SJ0L1EUc3Jyateu7Z4SQziPUZKaNWt+9913DwNUAAmj+D/++GNkZCSZZWpAPiBbBoMhJSWF6ryxW9V7771H4ijd+NnHyggZckAdSCPxHxISsm3bNo7jjhw5gjVbEMVfvnzZPXIHnTBXarW6W7dut27dehigwjvgr9lsxii+F6eOYZiTJ08CYKh+RKAIouG7U3QMpsuQKPEQTye1plKpUFyOADYvLw84CYJw5MiR4h5BRnf+/PlBrEqXqjv3dtkqQEruoST40KFD0uo7GGoSL4jOwYMHkWiHzRB4oaCgoGXLlmq1etCgQaNHj4YoSBMZJcIjvQBcZhimTZs28fHxGo2ma9eut2/fpliK8hQU3kl/jueS03j58mVUP7pzNuhnyhYqkEsD2CaTqV+/ftAhUocK7w+FtmXLFkEQTCYT2SqO40aNGqVUKvfs2XP06FGMJFH+F7aEshtAggyMtDdQJTMW91m6dClu+9prr9ntHKDC4mLOLBcvDB48GCskkQwRzADvL3/5C21aF3Rg3G9YHlBBpUDCVq9eHRoaCg5Ks9Tk0a1atcpiseTm5n7wwQe0ZdvSpUtbtGhx9+7dO3fuREZGqtVqTBGHjOI+ZM+gtSjohrdGc6oAakhIyPfff4+tWDdv3owM5BXXBzJ99uzZOnXqwG2RQQXiY2Jijhw5AtF3Z2tZnClXqOx2e0pKSuPGjd3NNTkXb731liAIt27dGjp0KKU+v/nmmzlz5jg3pLPZBgwYgApWVGcCCeImNj2nQwwy4fpmzZohYa9SqRo2bJiXl7d79+46depkZ2ebzWZRFLds2dK3b1+s7bB69WrEc9JboY31wXv16oWqdHTBssBGds9yhQqzMMaPH0/+rjQwAiM6deqUmZl5+dLlZs2aFRQUgBE5OTkZGRloY7adUqk0GAzbt28fM2YMisWQGsdIJlJ26P5arValUk2aNCkzM/PJJ58Elt27d7dYLCdPnhwxYgSCVpvNtnTpUoPB8P3333Mch/Uo3XGiLrVq1Sok/coojSTDKfi1Fe4PwBlKYvI8f/z48cjISPBRBhU2ffts+2ebNm0yGo1XrlwhbxBDKoIgbN68WaPRqNXq7t27W63WK1eu1K1bF74JXHmtVhsbG4vsIiI5lUr1xRf7isK12bNn47ljx47lOC4nJ+e7777jeQGpdKA+derUM2fOREZGEirugMXGxmZmZJL7U9xbB/d8uUoVxg85jhs8eDDmH5BKIS9Lo9E8++yzc+bMKZqhvnnzZnL3TSaTyz0Rz5w5g8nh48ePx5rPTzzxBAFftFLYkiVLfvrpJywAj0rQGjVqpKamCryQmJgIEVy2bBntDgzvNC8vD6q1YcOGL730knSETAaVSqV68803nZloQUTIGFxIirtbOUGFx8P2FCUgEhMTo6KisHKCrPPC9qBTY//cB177r/+uX7/eqFEjAAl2z5o1C79SqVRGoxEOdL9+/eArMgzTrl07m81mt9szMjLi4+P1ev2BAwccDgf8FzioN2/ebNeuHYiRYSM7bNasGWooKMAvjrnBPV+uUBFg+Xn5/fv3l6ar4b+RPoRT94c//AHDKNJ0wJ07dzp16mQwGJKSkgDf3r174aewLNu2bVv85J///CdO0vaGHMcVFBT069cvNDQ0NTXVarX+9NNPe/fuxfVXrlypU6eOzOmXgoTeoFAopk6dSgPzZZdHd4e5vKESRRHpos8++4zKuKD9cCiNMeGeQW1mZmampaUJgpCTkzNw4MDHH3/8zp078OZv3bpVu3ZtyNDYsWNxfXp6OqoKVSrVsmXLAGrR1sszZsxo2rQpPIL9+/e/9tpruEliYqJOp/PonSMQhMCFhoaiLppShdJu5M7fIJ4pV6goFrZarTabrWPHjui20owtoMJftVp9MeUiPLR//etfa9asAYsnTJiAOieabNurVy9Mr9uwYQPlHXr06MGybGho6KFDh2BU7Hb7li1bJk6cCP5+/PHHHTp0gHewatUqkCGVJLQxYAaSBg0axNm5wsJC0n4Pm7NOqg98gdE6cOCA0WiUYkOmAt48y7LY8EkUxJkzZw4fPhzYrFmz5sCBA+jXAGbmzJksy0ZFRX3//fc4w/P866+/rlQq69Spc/78eaQVeJ5PTU1NSkrCfRYtWqTX6y9duuQQHePGjYMbiQhaBhjoqVmz5unTp6nDUZVVEEXHy63KVaqkaQtkjwYMGADWuO9/gDxQQkICorHnnnuuffv2SGNnZmbabDZUqkBcNm/eHBoaGh8fn5aWhvM2m+1f//qXVqvt0KFDeno68KN5lbBPkydPViqVGzduFEWxU6dO8PoIJFLLgJBl2VGjRsnK/CgI8cLiYH1V3lAR3eibH3/8MW3+J5s+jLHH7t275+Xl3b59u3Xr1nXr1k1KSpIOtmKOhs1mO3nyZFGXHzhwIKJmTAj4z3/+ExYW9vTTT+fn54uimJKScvHiRdKEoii+8MILKpVq+vTpN27cqF27Nq3lRd4NSTzLshEREYcPH8bT6S3Ks1GRUImieOfO3c6dO2Ncg1Ls6M6Ua5g7d25KSkr9+vVDQ0M//PBDTEeAWBw9evTMmTPYVaxp06ZLliwh7WS32/Py8po2bTpp0iTnT3hh+fLlc+fORd0EFGC3bt1Ylu3fv//XX38N4ZZZTUAF+X7xxRdNJhPy7uWJED2rIqGC63X8+HHkUuGvUywMuwXezZgxIywsTKPRIDGI+guO4+bNm5ewIsFisWAwDIbq7t27ly9fhmoaM2YM8LPZbMOGDWvfvn1hYSGqJ6xWa+PGjVUqVXx8/MiRI/EgGsci7QecIiMjsQD3oytVUEfPPPOMdLhBihaUEs0QrVevHrQZYB41atSf//xnqLvdu3cj63rp0iWM+HEct2PHDlfqiM/MzOzQoUPNmjWTk5ORR09PT69RowYK+bAoFLkVUgIQA8yePdtsNiOvQd28nBsVKVWUOP/iiy/Cw8OlhTHUqZEHosV9VCpVYmIi8oEmk6lDhw79+/fPycmBx2yxWHie37Nnz4ABA1Drir3hRFFMTk6uU6dOSEjIli1b4LnR/hhUDgUTJTNUDMPExsaePXuWqC0371zWFSoMKtCByDQvL++pp55CKTJMFIYZKYVBXplKpZoyZQrHcRaL5ebNmxEREc2aNcvMzERkDW5OmDChUaNGOTm5uDk04datWzECMnnyZAymrF69GiJLMkQNUsVozJo1y263U3L2EYUKCzXzPP/dt99BHVGdicccj0KhaNOmDbA5e/aswWAICQlJSkqCl8FxzuA0Pj6eYRiM+8F9KCo/+r+//B8yETBXPM9PmzatOKjgTUCUW7Zsicl6iDRkzrqs45fpYQVLFVhsd32mTJmC2jzENx5zByzLhoeH79u3z2q17tq1C/WU7777LkTHZrOdPXsWuxGNHj0aN0f9U8eOHVE3bzQaU1JSbty40a5dO3h9JEzUoFLD8PDwrVu3OqWTdxXNiuKj6FagA0KqUPyclJQUExNDyz56zBoUbXqu1WqbN2/+3Xffbdy4Ua/Xsyzbr18/JCNEUfzoo4/gKVDRK8/zKSkpRqORbvjqq69OmjSJ6p8IITTgeSKV/PTTT+fl5UH1YXS41NuaBy5wFSxVJA02m81sNk+dOpV6NC3tRoYKBl+j0eh0uqioqMcffxyedHR0dEZGhlMybXYkIPDbH374ATnDtWvX0oAWwzBYihD6TepEEFQQ64iIiGOJxzBjHqKJzGG5DfvK0K1gqPDyAKyoMun69estWrSAUUG/9tjlaXQKUCkUigMHDphMprt37/bu3Rsj9EWeG3aN4jhu5MiRuBvcBBIvdAI8AliSpdRqtXPmzKGAGq6E9K+Mj+VwWMFQ0RuCKQ6H4/333w8NDaXBIY9Qga30V6lUDh06NDk5+cyZM40aNcI6MwqFApuGpqenN2/eHNITEhIilVG0afIhMugMw2g0mp49e+blOlVfRckQcYYalQgquNpZWVndu3fHqKC7dpIhR/N5GIaJiYlp164djTEqFIqWLVvOmzdvyJAhRqMR5+m2UsAQ+SJUwHmWZb/44guLxTmHshoq6iv/bUC98Dy/c+dOuHbuwLifQf4QEw5ZhoWKY1k2LCwMS+iyLEuJYJp9LIUKJ50/VDhPh4SEvPHGG3Al4Ov/l8QKbVW0VP12XWtBEGw2m8lkevnll8l4uMMjPQNzpVarITEQDiqWphUkUbpEAZMUKsqS6PV6pVI5YMCAwsJCCtTKbZC3xG5QwVDBoSAq0Yt5nr9582ZcXJy0/BbwSFmMNsIvKrCVGh7Sn6h8Jt9SdhMpftHR0d988w2i3cLCwmpbRdDIGwiPkIr9xz/+gYgYf6HZiPtSwSpdmwBDEkupVBqNxoSEBIfokHUgOZUVdFzBUiV7a5RRIHdnNptpNfSg4ySVJNgqVOA6nYhqqGSoFHcIkUIWIyMjo02bNhgfoSVASidD7r8iqYLUPvHEE2lpaWazmao/iqOwos5XLqmCZ0xpcpvNtmPHDuTuitsRwR0DH88QVCqVqk2bNjQaCe1XUelzL/2gckFFdTLo3ZCwRYsWRUREYPkzH2Hw5TKCKi4u7tixY4jBzWYzRjurofLSaR58BU6hhIHWj5g9ezaqZWjYAtYL7p8vwNA1cEyoGiAkJGTnzp0oqCZLWTKVFXFFpZMqGRM4jjOZTIWFhWPHjqXZUQaDgcooCQMfG3AiYP+MRuPOnTsxcYGi3UooT+BJZYcK2Sae500m08yZM8PCwiBe0vipRJCg63AZhlEwO2jDhg0Y2kDRRKW1UlUDKtRfoqebzeaFCxfqdDoM/qLilUyOFA8v4GGacGxs7JdffomowDkYb+dgJitPbkKmXcpvKpz7g308A2uPrIHVarXb7Vu3bm3Tpg1Sf7LhDI8BMp1EtoJhmC5duuzduxe1NC5JcoiiA7D5SFWFXFYFFKDd7lzKh1bbs1qtaWlp2PtKOu2nOKmCAwIR1Ol0L77wYmZmJqQHPQARgvOMKyEp8EKFIFHiQys7VLIXoADZYrF8/vnn/fr1wxYscBOQuoWo0fAjErgGg6FLly4bNmxAGSGZpUrrRMhevAooQHeKaeyc5/mCgoLjx4+/+uqr8fHx2PwAOCGzDmfPYDAMHDhw+6fbMzMfzN6V4lQNlTuHg3MGoQ+iLpqHI4piXl7ewYMH586dO2nSpAmuz+jRo4tmvW3dujUtLY1UKI01B4ea8r1LFVOAEAJUMsNng72BoOC8zWZD7QrGnDAZlHOWXHK4rHw5HLSnVT2oKJ0h5QEtleCER3gwXslxHBYpdYL060npr6pWu+pBRfyVmhlqUwOX4VAqTLIL6G6Vv/H/AOJkspHO9ykAAAAASUVORK5CYII=;" vertex="1" parent="1">
          <mxGeometry x="-104.5" y="158.66" width="62" height="103.48" as="geometry" />
        </mxCell>
        <mxCell id="QtaL7ST3ouDVnCg1hJHW-41" value="" style="shape=image;verticalLabelPosition=bottom;labelBackgroundColor=default;verticalAlign=top;aspect=fixed;imageAspect=0;image=data:image/png,iVBORw0KGgoAAAANSUhEUgAAAI8AAACSCAIAAADzSQ6BAAAgAElEQVR4Ae19eUCU1fo/s88wgBAiSiqI4YKkhkupXdFUCJfSTL3pV9Pcut0wtcWbml6Xn5Rpai5X771ZLlclpdRCzVRcsNzJBXdMQPZhnfWdeWfmx8wHH9/eGRCGQal75w848877vuec53Oe9TznHA/r7/ZjsX9+t813peEerjz0qJ6xWCyoymw2G41GXrVAy2KxmM3myjsrb7fST1TAsyzLms1mlPGT1Wq7mffmBvu1QaNltVqJuERuhmFYlrVYLCb7B0Q3m810HcS3WCwsy5pMJtxMqBBIuAKwTSYTr6KGCVjDRYvIB/qCLQCS0WhkOR/wFuDBbWb7hziJ+xOewyMsyxqNxgcVmX/DZFxcGwh4DRctCCgwDYhlMplQAEOwLFteXn7r1q2jR49u2bJl+fLl77333rRp06ZOnTpp0qTJkydPmzZt3rx5K1euTEhIOH369L1794qKigwGAx4n+YkRAMwI+IYpHhsuWuAMsALDMPfu3fvpp5+2b9++YMGC8ePH9+3bNzw8PDAwUCqVikQioVAoEokkEolIJBIIBELORywWCwQCkUjk6ekZEhLStWvXwYMHT5069bPPPktMTLxw4UJxcTFkJrFgA+QqDNPHgBZogcFrMdvUD1fOmM1mg8EAfWM2m7Oysv79738PGjSoefPm3t7eMpkMeAhq9vHw8BAIBB73P2KxWGT/CIVCsVgsl8t9fHyefvrpN954IyEhoaysDK0yGBgYNSQkiadJlQLaR8yCjxstO3QgAcMwFovFYDBkZWUdPHhw0aJFL774oo+PD+gLutcMo8q77mP04D89Dt4j5IRCoVwub9GixejRoz///PNz584VFxebzWZYHwDGbDazLEtokdnCHWr1XX78aKGHYKbLly+/++67HTt29PPzAw+RlJNKpUTrGhYeoFRFifseDw8P1CiTyZo0adK3b9+NGzcWFBRASFqtVkIOJgypvfpGiPv+x4kWmXUZGRkHDhwYM2aMp6enWCyWyWQeHh5isVgoFBJBRSKRI83pV6cFx/t5V6DtwGf4CWKTqm7WrNnMmTPBahaL1Wg0kuijApea9V1+bGjBiLh79+7ChQu7dOni5eUlkUggkUA+iUTi4eFBgLkFLa4OI3hQBb4KhUJUijaIxWKJRNK0adPBgwcnJiaq1Wq9Xv9YcMI4qHe0qG8owMRgWTYvL2/t2rXt27cXCAQSiQSGHBCCaUeKCgWxWMzjDLrBKWM5AsN9HNXRg1youMqM5LBQKJRIJNHR0efPn4cNCQOEOlXfXOVmtAgVvNfm09iiPLYPxRSgnAoKCj777LMuXbp4enp6eHgQQlxqNpwyIYqCl5fXsGHDkpKS1Go1+sgwDOkwHhHcDmF98RY33GC12GJxBoNBr9cnJyd36NCBhjbkW/V88HiR46FFKu3tt9/Oz8832kx9k0ajYVnWYDC4HR7eC+sFLRpiZPsaDIazZ89OnDixUaNGcHQgcEALp1Lu8YJEtfPQgukok8kEAkHHjh3j4+OzsrKsVivLsgzzwAbhUdldX92PFjQTBho839LS0sTExICAAEh/4ASEQAtYgESgBlXgoQVhQBwmkUiioqKuXr2K2DHPm3YXSPSeekELcpxcqPHjxyMGAYsZ2IAK3MBEgwKJGsNDC6YNNVts/wQFBa1ataqwsNBxWocI7ZaCO9HC+CJ3kmGYvXv3BgYGyuVyMsS5nSeK/K4LsPWlUumLL76YlpYGcWLTZvaIGhkgDQstOyfZJpnwycvLW7p0qa+vr5eXl1AoVCgUXJwasllRq6FDEgLOYvfu3U+ePKlWq2EJYzqGtHjdAXMbb1FUTavV5uTkDBkyRKFQSKVSmUwGdfWHRIt8Pg8PD5lMJhaLGzdu/NlnnxkMBgQ+GihvGY1GGLIZGRlRUVFCoRCRPbIg/pBoUafg4KOzCoVizpw5xcXFDMOYTKYGylsMw5w+fbpjx44SiQTTTvB8HcXgH0YSwqBHN0UiEc3ISKXSUaNG5ebmwkKuuwzEG9wjCeFX3b17Nzw8nBsshxHINdZpMNZKPTTwmwUCAfWRmioSiQYOHFhcXEyA1Z3JXEcLSSwUVTp+/Hh4eLjE/qEW/3cW4JPJ5XKpVDpkyJCMjAyDwWA2m8vLy+vokLmIFhwLyki5fPlKmzZtvL29BQKBXC7/Iwk6FwYc0IImE4lEvXv3tlqtDMMg5FEXqegiWsg8QfTv559/DgsLQ+OkUil3usiFrv4BHqEgAMx6iUQSGxubmZlZd4vDRbTgCFsslry8vIiICERpiaukUukfgOiudQEKDMEOCnx4e3u/9tprjulWteUzF9GC93f9+o3IyEiRSESWhUgkQsTzv1YYcqPVEDOI40il0rfeekulUmEalkyPWgFWU7S4CSQsy+p0upycnL59+4Kf/muxccp/PGrA9QRmCxcuMplMyBeyWCxQZjUHrNZo2acGmPLy8v8b839IoMDsuNN2/+8izYmLRCKFQhEQEPDdd99ZLBZEOnjZeQ+FraZoQfTBADUyxvj4eLlcTmjBCvofNo4UgH9JIlEmkz355JMnTpyAxVHbCcyaokXWZ3Fx8bGjxwICAmD+IefEsZX/u0IUgGCkeIdIJOrZs2deXp5OpzOZTEaGv3amGg6rKVrgKpPJpFKpnn32WTATwkuIuFDj/lfgUUAikSC7GyaiRCKRyWTvv/8+nLBaBThqgRY01ujRozFYkAMDaxADh9fK/30FPJT1RlSC5fzNN9+4X2/B1sR6tx07dvj4+PBsHhdQwRswXw7XhOeg0FQ6PE1KYSM14EKllCgIzY+vZHAjIIufoGaojAlipM4T6UkV1bYlyHqTSCQRERG3b99GCjCSw7hp207l4cN5C2ghbvvcc8+RuqptK3E/F2n0HCFRkMbf3z8sLKxdu3b46+vrSwnPKIBkIpFIqVS60ADCSSqVAh6a4xAIBAqFomXLlm3btu3cuXOHDh1atmyJnB+E02CCIwWIqnbBvKI1LyKRaMaMGbTkCTNh1c+H1RQtnU43d+5cDw8PpVLpQhMJKjAH0ghBL19f3969e8+dO/fw4cM3btwsLy83Go0Mw2BW8/z58199+dXo0aPbtm0LPgC3oUxUq2EBS4PwFzhJpdKQkJDRo0dv3rw5LS1NpVJpNBqTyWQwGIqKim7durV169aJEyeGhIQgb5dkgGPQvYZtIBb39PT09vY+dOiQPbvNFkU0GGx/q/nUFK19+/YpFAqE2DHKat443p0gFmZaBwwYcOLECZVKBf+Duz4V/jiWL2q12vT09JkzZ3p5eXl6eiK914VBA25G8MXDw8PPz2/69Onp6ekajcZqter1ekwpIKuCllaWl5f/+uuv77777hNPPEGjRCAQ1CXARjNHXbp0ycnOobirG3hLp9MNHjxYJpNJJBKFQoE+8zB46FeSgaB1y5Ytly5dWlBQYDKZQCZaCEyyl5YDwzsxmUzHjx/v1q2bj4/PQ6tzegNlSovF4l69en377bcIKxjtH6vFlhZoM9LsK1oh/DH/i2TWo0eP9urVSyaTyeVymhN3WlE1FyGNgbpEIpHL5atWrcIoIe1VFXtVyVtm1rb2HXkg+5L2KZVKIndt0cI4AivI5XKRSBQWFnby5EmT0TYLDruItVfHNWcflO+vBoaAys/PnzVrlkAgQEASQpXaxiMTxAAZY3hKKBSOHDkyPT0dA/lBRfeJRFe4BYyh3NzcSZMmcRdk8mp86Fc0FdSAOO3UqVNZWZk9B71yidj9hvD/O0eLRhzLsiqV6rnnniN989DWON6A0SQQCLy9vYVC4bPPPpuRkUGE4Leo6u9YL2wymUpKSuLj4xUKBdidpIpj1ZizgKqQyWRYXTl48OCioiLsAVB1bc5/KS0tVavVo0aNUiqVNOfgWG/Nr0AvLFiwgGFsWdqVzO28cqtztIirjEbjypUruZk9NW8H3Qm04Jk9/fTTZ8+eRYJUFU2q8jJ6Al+iwhaYM2cODH2Yi1QdFTB+YZVgRAuFwiFDhhQXF2OxbJU1Vf0DQrFlZWVvvvkm5ERVbE3NeGhBLBb7+/v/8ssvNGlZVf3O0QJFzGZzXl5ez549IU9cbhbQgg9/5MgRzGFW1aDqr8PosFqtOp2urKysX79+np6ewMNRPqPBEIOwwps2bZqamlpcXGxb62h0ZY8M8mfv3bvXpk2bOo5jAtLLy2vWrFkMw1QfOXSOFkA2mUzffvutUqmEi1BHtJRK5dKlS+1jsxaRMS54ZC9RSPTXX38NDw+nFWDUeW4BfoJcLvf09Fy3bh0GIojumjSG7cMwzJEjR3x9fcmV5lZaqzLyLTt06JCTYzMOuV3mlZ2jVZm5yJr79u0LeVJ3vRUVFVVaWkpmHq8dNfwKQwOrgMFnGzduhInoyFsgGexskUg0ZswY1lS5bgc2VPWkcdokmpGCfTRjxgzYmS4PZVrBJhKJVq1aRSPSae3O0YKrsXv3bvj8tRopdDO5Jhjd27dvp2Wg7sruN5lM+fn5kZGRNMDJ4gD5oMOxGjUlJcUpCVy+aLFYbty40bZtW8R3IPCp+zUvoM0ikahVq1Z5eXkwPinVl5sm5Rwtq9Wq0Wj+/Oc/o8qqhm01DcIjmAATCAQwUgESWsNthGv0qpxsMxo3btxIcUUuWigDyOHDh2u1WtcqquopWBxxcXEu+14U9oVyFYlE//rXv+B7wQCG50cNcI6WyWS6cuVKy5YtEZerBpWqfqJ4B1ycrVu30mCpe+oPWo/+mM3m0tLSiIgIRH55aAEqiUSCBlC33VJAA5KTkxs1agRWdmFYg4AU0Hr55ZfVajXZGjxZ7Rwti8Wyfv16rOQh17IqYKq6jgdlMlnr1q3LysoQSdLpdIgRuIVeCFpXqJA5c+ZQJg8XMAze9u3bUwPcVS8iL9g5p3v37tDuVZGi+uvAGAMrKCjo6tWr0F6OOsw5WgzDvPDCC2S4w+Wuvkrer1AYiK+PHj2a+AlLx921kQv6YzKZDh48iAHOhQrjXSwWx8XFQby4ESpCy2w2L168GLR2jbeIL23GoVgSHx9P/YLWoGZXogWOo9jimTNnlEolWoBAAA+Mh34lnSEWi5cvX/4gAmaPxVH1dSmQJGRZ9vbt22FhYQQVmoevSqXy22+/RV5JXapz+izacPLkSZCrLhxGFIuMjMQKMEcF/xu00KAKX2T+/Pl42DWoCEuhUCiTybZt2+a0q3W8CCsD46CwsLBLly6OaInF4iZNmly4cIE3SOtYNT0OqX7nzh1MqbjGW0QutF8kEh0+fNipFfYALbAXMi+6dOkCl62qoA5VUFUB3I195o4fP+60buqzawWSBxaLpby8PDo6mocWhlr79u0zMzMfMLdrlVXxFHiLvIi68BaFRYRC4d/+9jcE53g6no+WWq0+c+aMv78/JaC5xl4YZSKRyMvL6+rVq+5ysByJBhGn0+lefvllR7QEAkH37t0LCwuxZN3x8bpfYVm2sLCwd+/erhGKO9zRfqFQ2LNnT5VKRZYhNZKPlslk2rhxIy3Bx7tcGDLEW97e3tevX6cQAFXsrgIiSXq9/qWXXnJESyQSRUVFlZSU1BNvwSgtKioeMGCAC7YYFyriLbFY3KpVq0uXLjmmaVSiBdrByJ4wYQLsC4Ka99KafwVvpaWl1QdakISIP+n1+iFDhjiiJRQK+/Xrh80G60kaWyyW4uLi6OhoN/KWUqnc/e1upPRyh3UlWohywnDs1asXdZsKNUeIe6dQKPT29r5y5Qooy63YLWWoDYvFotPpBg4cSC452oBQUN++fUtLS7Ebk1sq/c1L7JsilZWVQWu6IIS45KKyTCabNWsWeset7jdoGY3GkpISf39/AokK9KIaFiAJpVKpQqE4ePCgXq/n1uqusn3Ww7aTeGlpKTmI3BbK5fIePXrUt94qLipG7e5CSyQSRUdH2xczVu5eD4o9kIRwtpKSksgpJqhAei4VHlrGI1guvnXrVkxGuwskeg+lThQUFHTu3JnHWx4eHgqFIiIiIisrq54agIRzlUrVo0cPkOuhlHnoDehFkyZNioqKeDLJhhY4DmLwrbfecgtapDOlUimmtfB+IrS7CjAfbt682apVqCNaQqEwJCTk1q1b9WRlwI3Lzs7GxnAuDOuqwBMKhSkpKZR3BXLZectSeaSBVqvt2rUrl6WoXNVLq7lOU8YjRoyAAV1PgFmt1r1792Ji0JFe3t7eBw4coFUX7holeA/Q+uWXXxo3bkyhn2poUsOfEExfvXo1TVVz0LrPXllZWYGBge7iaIQKhUJhWFiYRqOBY0RT9XWkGkQEZa7N+mAWhbGJItSA+Ph4iBA3RjRIILEsm5CQgDk8x7FCjalVAQP9nXfeofjqb9DC0Lt48SLSHGr16mpuho/s6en5zTffkMHNa4ELsIHo+At/q3379tXMFfTu3Rt7ILgFLcv9AzRIqYwYMQLOVh0jT0RJMMwrr7zCc5ArrQx0Iykpifa0pSddLiC5BY/36tVLo9Fgigvz9C6ARI+gtbTl9T/+8Q9MbvGaCt7Cgo7U1FRa2U7vca1AIEEX3r17F/uhQ1Xz2uDyV6FQ2LlzZ5VKxXUTK9HCpQ0bNiDLwOU6uA/SqzBS9uzZQw5E9VlzDyViJYtYrFqtVqVSRUZGYlMsbu0oU/LznDlzWJMtD5do/dBanN5Aj9Ni7+XLl7t3YTwYVCKRBAcH37lzhxtYqEQL5Pvoo49cTi5wpBTpP2iUQYMGFRQUgF51pBoeR+xxzZo11cxWYIpSJBKFh4ffvn27jvXStBz1IicnB6mxsAvcordg2UokEswecA2N+2iZbGcbvfnmm3UPnwA2QIWKsXjS09Nz69at8JB44tjpKK7mIhErOzs7NDS0qjajDaCgTCZbv3593dFC7A4U1Gl13377rUKhQFYI8bHjwK3tFZiXjRo1OnLkCJcOlWhh06YxY8bQmsvaVvDQ+5GReuzYMbVaTfFKIh9XOnPbxy2bWdsJdxBBjIEpKCjo378/LYdyDKoCJ4wYsVgcGhqalZlFb8DbuO+vSRnLT2zrhY1GlUrVpUuXumeo8UhHA93b23v//v3E0Fbr/cxqoDVq1Chb3zweHKrDe1FdviJrvFu3bunp6bDQQDiYozVBC0m+0Bxqtfqvf/0rLf1DAqjT5nEF8ohXR5SXl9NyxJrAw7sH005YXjZ16lQwAQaE09pduIhBhuTir7/+mgb0A7TgBg0bNswtktdpE6ERRSJRjx49bt++jXwx2jmiJmhBuTIMU1pa+sEHHxBX0bJJp/XiIpIbPT09V61aBdRdm/uHHahWqxMSEnx8fCjRqpqqa/sTTQ1KJJINGzY44S1sPj948GD3mqHchiJmCC+ya9euycnJWq2WIiuYrOENZHwlPxSLPrOysl5//XUsHsHYghXj1NfhGU1CobBp06YJCQm0ns5pjY4XqQ32FYyGEydOtGzZEqsWuH10S5mL1qpVq5yghUyrQYMGkdxwS8W8l/j4+AiFQqwm9vf3X7Nmjdr+qd4DA6VYli0pKTlz5kzr1q1pKQ55VLyKuF+RdwWRhQOIZDLZrl27sB7SERinV6gNFovlhx9+8PX15c6tc6tzSxkoSCSSFStWVIkWpTa4pUreSyDcuavz5XL5gAEDNm3ahGx9CEMYjXTQBKSfVqtNSUmZPHly48aNYZTTIXeohbpHabO0WAg/0V84y82aNVuxYkVBvs2jADyIYdJX0Ahf0SRkfyxbtuypp57y8PBAM3h9dNdXiASkizlHi2GY/v37V2UNu6sd9B4YCOhzaGjoBx98cOPGjeLiYq1Wy9VhBQUF27dv79mzZ0UsHyuOebIa9gU2ScBCbjAcWAp+K0VVQAVkYgkEgtjY2HPnzmEyk/gb+dKYYQFLYdMYlUoVGxvbqFEjdMFdU1lEEF4Binb58uVVohUTE/PI0CLCYasWrO7q0KHDiy++OHTo0JiYmJ49e3bo0CEgIAB4cNc7kynEM8bwEtJVJAOxjgM3w+AGLQQCQdOmTSdNmpT0fVJmZqZWq9XpdLA+bKxmtk1J5+bmHjlyZMaMGUFBQYQ9OJVHX/d+xQhbuXKlE5sQsdGBAwdSV91bt+PbQC+MUKyPBypSqRQ7B3D9GEqXw3vIxqXXwj6EcqK9oyGvCFGKhJEQo2NclUplixYtXn311fnz53/11Ve7d+/esWPHJ598Mnbs2LCwMB8fH2ySC5eOO1aoAe4tUPBp7dq1TtCCBY+0IafGlXtbg7dRjAO05g1YfMU91CQqUHvoKZFINGvWrNdeew2iUigUenp6jh8/HjNPVAXAw/EPtDIFq77JwqQ3YEhxhwKqw5gm2Kgx7ipgEFccPPrFF184kYTkb2F4uqvW6t9Doslxagr0IqI40oU4BgWJRNK6devCwsLExETylIOCgjIzM4cPH457oNuI3PDSUDUu0jvpHvIN8BOucxWnYwCl+i7X8FegpVQqt2zZ4hwtk8k0ZswYx8GLCiA0ELuEr0MdIGmGQHhVb6hhQ2t1G+a05HJ5xfBfsGCB2Wz+/vvvYWV4eHi0bt26uLh48+bNvPTIWlXh8s0EOY0S2MOVnCqwHVDpOArpolAoVCqVSUlJXJurMk6IFJq//vWvVdEaOdLYdJTOUYANBnmCB3mD1OWu1vBBYiN/f/+TJ0+yLAu04IO3bt26tLT01KlTsPtr+E533UakILuGkCCxXE1dQqHQ39//6NGj3LhBJVo2+9VoWrx4MTE770VgIBgqEDtxcXHbtm07cODAe++95+fnB7YjW5n3eH18xcCE6A4PD8/MyGQYZteuXSTiWrZsWVBQkJWV1apVK7Is6qMlTt9JvIXYvEKh8PLygiLEyEbwvppnAwMDz549y3UBH/AWy7KbNm0iw4n3FmxbVuGveXt7z50798aNG4i26fV6g8EWicEeSHAAqoKc9846fiVyyOXymJgYhGu//PJLCnA8+eSTmZmZpaWl3bp1w1FFdayxVo+jedhTSiKRhIeHd+nSJSIiwtPTk4zeqrITwHwtW7a8fv06N7ZSiRaE4+HDh6X2j2OzwFteXl7bt2/H/gxqtZrCrEajMTIyEqfLOD5bT1fAW+jYrFmzEG9duXIl0BIKhQEBAenp6SzLvvbaaxTaqKfGOL6WBlNUVNSPP/7IMAx2Z9PpdIsXL27VqpVAIMCOnI7PgvnCw8Mxf0uAPUDLZDKlpqZWFf7C2Fy8eLFGo8F8B2Y69Hq92WzW6XRt2rThWR+OjXDvFS5aGzZswM5as2fPJgdfoVCcOnXKbDZjIXdVKtm9raJ0GvjmTz755KlTp2jht22SyGQ7WfjevXuzZ89GyJRnaxDM/fv3r9ho0LneMpvNBQUFzZo1c2qVYqjiiCIEzrGRIMJre/bsgWLAYMFSfvdSwenbSOht27bNthebTj9s2DBacyYWi7/55huz2bxo0SKQwOlL3HuRIl4YNG3bts3JycFcOSJYlNmo1+uXLVsG04MHGJTx1KlTeSupHugt+67yxv79+/OeRGeEQuG7776LrXVZls3OzkbdBoNBp9MtWLBg6NChnTp1gof0yEQieiUUCvfs2cMwttnkHj16UFSpwjJctMi2W/66deseWYwGqgjVyeXyoKAgpNxiCtQ20FmzSqXKy8szm80VB0BHRUU5jiTI7XXr1vFSIirRQkyzIvL9t7/9DZqAO+IwXj788EM6N5thGGwqiKkWg8Gg0Wiys7PnzZuHbSKh57gvqY8yYfDDDz8wDGPPr640/9CL2NhYs9m8efNmurM+msF9J0hP/oxCoRgzZgySX82s2WAwVETPU1JSdDqdfa8X68KFC3looakVG4idP3+el3tpR8u+rAXx5u+++86pfK+YE4qIiLh16xaOBNfpdAUFBUVFRRgymCsyGAw5OTldu3Z1xJvbH3eV0UmEG7BQd+/evfCUIR4QtFUVqnbt2vVoRg+6BlVC4Uq5XD5lypSbN29i47ZDhw4dPXrUaDQaDIbS0tLJkyfz0EKP4CwCFL6VgSkcbJrm5+fHE4bgLYlE0q1bt3nz5q1Zs+bq1as6ne7y5csG+8f2uKkyG3P69OmPBi2MKtR18OBBi8UyYsQIcmiIWPv27fvPf/7D65G7Rozje7hjqFWrVrNnz965c+emTZuOHDmi0+mSk5Pnz5+PJJx79+7FxcVhm05e86RS6fDhw2FyE1T38zLsvEUTPM899xwFS0hjkz4Xi8VNmza9fPkyoL1w4QJjYBAnxszQ/PnzETKnFDuKvzn2rS5X6DQXsVi8ZcuWQ4cOUZSWXisWi//yl798+umn9ScJAQ+JPhSwadOFCxeQnoRQkcFgePvtt8eOHTts2LDo6OjGjRvTDqY8tComx22BNHuOlxPvGP4WpuAQf8LzFMLAEEaoolevXoUFtnOzjUZjpv1Dh9yVlJRAbWI7LyTu1JOvIxaL4R0KhcLnn3++W7du3EkWCvM0adIkNDQU4oVQdFeBBgEGKDG0TCZ79dVX9Xo98rog0D799NNDhw4VFhbOnTvXy8tLKpUiZYELFcpPPPHE999/j6e4ZuEDfwv7fVoslm3btkH6U4e5rCbwEPTt27ekpAQyUKvVXr9+HQnuBoMhNTU1JiZm+PDhnTp1atSoEfwJzDO5i0C898AspFHF7TlPATv1THhvc+ErpA49iLk6uVw+atQoymAoKyvbtWvXsmXLcGAawzDDhw+nKCs9C4KLxeKwsDDkVHMnt+5LQrtohBfGMMwvv/wSEBAAKlBTaBDJ5fLQ0NC0tDTs2GQymTQaDTbxZVlWrbaVTUZTWVnZzp07Q0NDMTVcH0qebCcQqCruQYQX3eHSxS1liEEiDmLfISEhoaGh4eHh58+fh89TscBrzeo12MRcr9dXbMx0/PhxLy8v3hoR6tGgQYPKy8shsZxIQppEwR7DL7zwAjEEOecU1BIIBBMmTLAHCA1IvC0pKYHjDCdMr9eXlbots5IAABk2SURBVJVZLBYojPqAimiN2RClUunUJQd7UcSZnnJXgWvOVewh86c//ennn3/Oy8vTqDVFRUXZ2dlWq/XevXt//vOf79y5o9VqYZFr7J8mTZoQkdEeQh17LcG+cBLLgN6iFJ+PP/6YMlLIwKPBC+o/88wzc+fOjY+PX7t2LcMwCBvCoDfZgys6ne6nn36CncLLkuTJKNdoB6EHE6Ya1Qj1RuEo1+riPkX1kmhFlH3q1KlZWVmgACUj5+fnz5w589KlS1gqQsdIfP/9956enrQ4BSSF3vX29kbonScGfyMJgSTuuHXrVrNmzaqZ/sBJbbDs4+LiYPPAMCXOLS8vP3bsmEQiQa4SdrxHMgyAJzHCHaFcujTMMqVMkcoUCoVBQUHZ2dlgHaQhI4I6efLklJQUhmGSk5MvXryYlpZ2586dtWvXPvXUU6Ae+AkaB3SIjo7GFgiOa6UfxDK4aFmtVsqy5uptLvkQs/D19f3xxx8hSM1ms01p2U+mR0LgihUrGjdu3LVr12effbZjx44BAQHQItRELmDclzfYMqLbaDZSrABev379kCKPFdYMw+Tn50+bNi0xMRFG/KpVq0QiEdJGgQ0Yi+xYYC+Xy7du3Qp6Ou52VCVamzdvRrjPqdQCc4hEosDAwJs3b3LVHqJTZrNZo9EkJSWdO3fu7t27KpUqIyMjKSkpIiJCKBR6eXlxcUK5wSLEbRjGGVnqUBMikej5558HKjhJw2KxvPvuu3v37kUMt+KrWq2mKA9ceLyEyIt58LZt2969exdxc7wQXIS/ztFiWfbWrVuYBCHp7LTRISEhubm5sOAhA7VaLY7Zg1DV6/XgNvxNTk6mheg8wLjvb7BlsIVIJJLL5cHBwT179vzTn/4UFhbWoUOH/Px827oui7WgoGD06NH/+te/kFeKoAHLsv/4xz/IFyLRR2YBrKRx48ZBhAIerolRpd7CWBg/fjxUl6MwhG6XSqV+fn7Hjx/HnA0OPWFZNicn5+LFi5AMABI/WSwWlUrVp0+f368kBJUlEsmsWbNu376t0Wh0Ol12dvbx48czMjKguePi4rZv344sUrtGt62gNRqNmD7EGyjcA/OH/Jw9e/bAHcZY56bQOEGL+E6n050+fZrSzZ0KKwyxmJiY4uJitVpdWlpaXl5+69atn3/++dq1az/88AOivUiWxgoRs9k8efJk2Gk4eYyiHrDrIGNxGBrJdPSwnhgOYxFBINRO4x3+EDQC2oA9Dzp37mwwGBDHQ4gVi1YKCwv79OnzxRdfwDKspLWl8vCeCxcuOHUzUKlUKm3dujVvioTgcC4JcRXA6nS61157DeLVES0IXKQYtGvXbvjw4SNGjBgyZEhwcHBycjLLsleuXEH4BAEYNJ1l2fHjx7dq1WrSpEmffPLJmjVrZsyY0apVK9AFggIuPU0UUWKX29EiUUx6CFVjlGDUIziEjBc0TyaTzZkzBzKD5AfLspcuXRo3btzevXtZltXrbFPqgBC74BuNxvHjx9M44PYFdopSqdy5cydP9NUILUShrFbrkSNHqlpTBmpiVRb38Pc+ffrQaVKnTp1asmQJYlSYamEYZseOHQaDAT1BKCw9Pf2pp54Cp8Jo5B40SGlojgKZ2+ealB3HHCBx+mYSVjDexo8fP2XKlOjoaIVCsXz5csh2vf1jsViOHTvWpEkTHBBAzpZNVZstQGvjxo3e3t4UYeC2Fmh169YNOp6HEPcr38qg30DHiiVTSI532k9SP8TLUqn0gw8+IMfLbDZfvHhx3bp1v/76K2xFo/2sl0rpwRgtFgs8/IyMDJxIAo0IVkMMAp4jnc2EfhJbcAtcEji9DS8nbEgrQ8phsRD6AnsaN7Rr1+7gwYOQ5AaDISUlJTExkbVlV9gmfw0Gw/Lly4cMGXL+/Hm4wDg8Zvny5du2bdu9e/dXX301duxYPz8/CAleI1G1VCpdsWLFQ5eUOUfLYrbJQnBYYmIi+Jc66eHhAVeXKsbwB1ssXrwYppHJaNLpdEaj8c6dOy+99FJqaiqdDkQrjiEeEetcunQpRA1W5I0YMWL9+vUJCQlTpkwJCgpCr9AGjBIiPQFG7aEC/YQCRBwZzZB7pDgRb0RnyZeSSqUbN26Eo2qx2BgF4TvIhry8vEGDBsXExNy7dw/jW6vRondTpkwJCAhQKBRSqRQRd1qcQc1DQSwWh4SE3L17F4OYGMax4Bwt5KDB6ler1b179wZpeNVg1IMQtOpmypQpCGVi4T6kYnFx8bRp03bt3KUuV9sTQGzHWcKmB2BGo/HEiRMBAQFeXl5Dhw49f/48RA3cl2vXriFoTQMfgQA/P79w+wfn+lJLUCA2bdGiRceOHbH2lAI0dI9YLG7RosXMmTMTEhK+++671atXjxo1io6IDA4Oplw8bLyAY83UavXu3bt79eo1e/ZsZCbBsgDRDAZDxSoVaDuMbJz5CgLSmEMbxGLx2rVroQIpEuQIVXU2IZKZIIKR3Ik0d1pGz0OO0GrWrNmNGzfIZIe6slqtKpVqwYIF48ePz83N1Wg0tD0X0NJqtTdv3gwNDZ02bVpJSQlm2irD/PYDC3Nycl566SU6ZrRilmDhwoWXLl26e/duZmbmDz/80L17d2gakABwNm7ceP369deuXbtx4wYOWO3YsaNMJkOGFsTdU089RYug4ZCqy9X79u1r1qyZQCB45ZVXEFOA5QUxkJubO23atA4dOuzbtw/CEMxHgFksFhyG5VQAEPtiJWefPn0QDUcAzylOuOict9Ay+OE4hfONN96ALsHodoSKdJhAIBg5cmRaWhoWr2k0mps3b61du/bmzZsMw2zatCkmJmbfvn0ajQZuo9FoBCpZWVnvvfcexsf9ydZKFgR4ycnJfn5+Uqm0R48eVy5fQZoDLTUvKSnBeXPAydPTMzIyEttl20eGCUcP5uTkvPDCC2KRWCgQwoXYuXMnDDyKn0FiX7hwoX379lOmTAESarVNKuh0usTExHbt2r3yyis5OTk6nQ42FOZmLWabGkbUDXFbsv5pDGGI0NoyT0/PhIQEJCNhCXqt0YIQg87EeLlw4QLWwUF/OKIFZQBTWCKRtG/fftiwYZMnTx44cGC7du18fHyysmw7i2AF8dChQ19//fWLFy+aTCZ4Y4z9U1ZWhtWJ8OfB33BrKqbJVSpVt27d2rZte/nyFRK2OJHLbLbt16pSqcaNGwclKpVKKznGxMLAgQRmGCYzM/OVV15BR8aNG4eq0U1oDji25eXle/bsmTRpkslkUqvVRqMxJSUlOjq6d+/eu3fvLi8vV6vVubm5S5YsuXH9BvGW1WrbfarCHZ49ezYkAeGEAghFzD148OCSkhKoOqgGV9CCXkEjMI0GKwDmbFVoYe4Ac9ikwxUKRWBgYGFhIVjWZDJVzP1Mnjy5SZMmq1evVqlUsHGBHGjK3a6Z5EPFg3Fxcfv27UOvwJpkp5jNZq1Wi037KhqJBUJQA3gbeUhWq/Wnn34KDg5WKBRJSUkktO0qxwI+hnlWXFx89OhRhmHA982bNx81alRmZiaYz+ZX6fUvv/xyUFDQhx9+eO3atcLCwry8vIyMjAULFmAHaB5U0Fhk1zz55JPnzp0zMrYNdipjrdUdbXd/LxpHPBH/INUHqzQmJsapuQHwICRpBFEWjVgs9vPzKy4uhh0F0cowTFJSUp8+fTp37vzpp5/eu3cPOgNoQTZSSBSqG9nEGIY0rwrOAzfgp5kzZ4aEhGDAcrkTNhucVovF8s9//jMsLCw9Pd1krDxwmWqhM45xwvL06dNbt249duzYI0eOQN1S6NZoNMbHx4ObAwMDO3Xq9Oyzz4aEhHAdAEfAQCilUrns02XgZkhpUkCOcOCKc73leLdtxsVic5ahe8HOD13FhobCd0aSAuaaS0tLIcrU5er58+fj7LlVq1aVlpYSGGAaMAdcggfrty0WwACJTXYUy7I6nS4tLW369OngJ/qJu7MU6eMhQ4YUFBRgZODlkJlIzUxPTx85cqRcLg8LCzt27BhENF6I2sH027dvh51JK0coYEYSiJwfrr545pln8vPzuRvaOZKdd6WmaCGcXBGDmD17Nlbb4S+tmaSWUQFQQR6KxeJDPx6CkEG+KsIZsBj379/fu3fvoKCgyMjI999//8CBA0iy5w52cAZGH+QzL90OTGM2m9Vq9fnz5wGJbWW+3XfEg/hLYZS9e/cWFRWhFtgsZrP5yuUr69evf/nllwMCAoYPH/71119nZ2dDigJLmh5CFd9//z1N2AM2MBYhBAqALDR8/f39T58+7TiDxYOH97WmaJEWNZlML730Ek0EV7WNI7E/WikUCl999VWdTqfRaNBnM2ujIuTtpk2bPv/886tXrw4cOBBzze3atatYUo/jvqG0qzlHkIAEf1CwFQqJ12EwGWbcbX6S3QaBBtq/f//gwYP9/Py8vLzGjBlz7tw5DKns7OybN2/SOhFiaMQyvv76a4oVEE5cqLhogVwymWzDhg2QBI7Nq+ZKLdBCaMNoNKalpbVv3x4GBU3YEEtRgdtigUDg6+u7evXqB2RiWZPJVFpaumXLlmbNmq1fv55hGJ1Of+DAgYkTJwYHB2M6ZsCAAR9//PH+/fsvXbpUqYpYM/xTxLdwbDGEEldAcWlKvAg4ET7X6/V37tw5duzYhg0bJkyYEBISEhgYWBEG/OSTT65du4a5duSb3Lp1a+TIkTk5OdDixFuo9O9//zt8UK7aJiKgQKSAjzx27FjyKetLEsLGhfj++uuvaTEvSTxeE7lfoYcVCsW4ceOOHTuWlZV1+/btXbt29evXT27/zJ8/HzRlGKa8vDw9PX3FihXdunWDS+Tt7R0aGtq9+7NvvfXW5s2bz549i+MTbJLNJutsHxCR9AqhBemHXzUazZUrVxISEubMmdO/f/8WLVr4+vo2atSoTZs28+fNP3/+PBQJXGAb9nbHID09vU2bNjExMXm5eRCJVEtWZhYCPQQVt9e8MiJPYWFhOTk5MALJmKqGn7g/1ZS30D5qpdlsXrp0qVLphewMYnZoUV4r8SsAg4j39/fHIlyBQIC0OmwrbTLasukR6sWM6P79+//yl78gAEF5S1KpNCgoqFu3bq+++ur777+/ePH/W7JkydKlS5cvX/7JJ598/PHHy5Yti4+P//jjj5csWTJ//vx33nln5MiR/fr1CwsLQyD8iSeeCHsqLCoqKiIi4ptvvtFqtZXy2WxGeAmogH2vX78eHBwsEomGDBly6dIlaLiKrVLz8vJWrlxJe38iPsDrOw1l/BocHIy9imhmBCTlQlJNuaZo8V5hsVhKS0vfeOMNXv4X0HI6L0CajDpAITuRSOTt7X3mzBk0HeEMRARwtEpmZiZyx0eOHNmlSxd/f3+EtLlZCHgtgk8KhYKmQiCFKnZqbdq06XPPPTd58uSNX2w8fvz41atXb968OW7cOBz7B1uUy6NQqyzLnj17Fme7SKXS5s2bjxkzZvXq1cuWLYuNjXW65sARMEy0ent7b9myhdxwHklr8tV1tOA2RUVF0Uwdgh1kIDk22hEwYjsPD48JEyZoNBqclQURRObD7t27/f397Se+2bzXzMzMo0ePfv7557NmzXrjjTeGDRvWv3//Hj16dO/ePTIy0t/+GTZsWMXCqffee2/dunV79+69ePEiElJJMOp0ujt37gQFBW3atAmRddtYsTunFFOAufjPf/4TCf0QZWRKiMViCizxOsv9CkS9vLw++ugjgqpWLEVAuogWbHGGYRB2w3IPkN5xegVN50FFihccJhKJGjVqtGLFCjieiJuZzeby8vL169e3bNlSKpVGR0cXFRVBamGWAJ3HvqllZWUqlSorK+uDDz6IioqCQYhlUhA7XHcN9lhKSoq/v3/Hjh3T09Nh/hCW3Enhnj17QoSAcWmZPi6SqOAiRKMQvVMoFB999BHYl6ogDGpecBEtHDZutVorsgFu3LjRvn17bM6AaVBeu6tCi6vk8KBAIBg6dGhycjJIf/r06eeffx7jGufHXLt2zdEuBwzos0qleuKJJ8Ri8cmTJ4kuMN7AKDbk7q+A+ve//y2TybCBg1qtxv2AFmxtZs3r1q3DRCh3go3A4Ba4vSaxjH69+eabSLiAUqw5PLw7XUSrsjNmmzHNsuzFixexLTrMeqfRqap4i8YmzXf4+vq2bt26efPmICVCAzAOFy1aRAlfEFxktcNnmjNnDiLLvXv3Li0ppYgiuk0OGeJb3IUesbGxZ86cgXEBL1Cn03333XfNmjVDAyizgYQBxSxIThBgsCmQ0RwXFwfDBJKACwCNJ+7FasouooU3AjPE91JTU7FMCpIQg45aX5OCI5y8K1jBkZqaCk8ZFgFkMghx7tw5+BXYJGnLli2YlwH1Kepoh8R6/fp1b29vEBqTLEql8qOPPkKiWVpa2jvvvIN4jdPBRz0SeAhgvpPJCpmBZ9966y2ttnI2GQ2uBoyH/lRXtAAYaw9MXL9+PTY2FnIDI5E2AMQsM/XQaYGHjeNXvK179+5YMVbpHZtsMVmDwXD48OEOHTqAcMiACA8PT01NBZBwDMBqJpMpNzf3+eef524nBEEnkUjA2bRPHjFQNW2mvYrgpSDjwcfH58MPP8S0MnjINcuCC6GLaPFYGNJJq9Xm5uYO6D9ALpdj4wwk6XH1k9M+46IjPLwrmGkVCoVt2rRJSEig1H6TybRgwQLQF6MEpBeLxUFBQT///DNsDa39w7JscXHxuHHjkGLFE2KQxqiI1sXw7uF1AdEcXMRYQVLbp59+qtPpuAGzx4aWzdL97UwM9Id9wZ067u04Pz8/Hx8fSjrjOka83lb1lQcVDVvkt4jF4meeeWb06NFDhw5t2rQpdwEvxBrma2QyWVBQ0IoVK06dOnXlypXU1NSdO3cOGjQIJHYUcbhCPEdSvapGIr8B7hTm1gUCQXBw8JdffgmjBrKHFAeXUVwou8hbjjVBb8Pw1el0X331VWBgoFwud5qWVU3n6SenaEEYwsvBvCj+0tbseEokFFECE/YTq/CrWrVqFRQUhHwbLEwipUXcQxIby9eoMdUUMBCBq0wmCw8PxzZ1yMVDTJIbFXMkXc2vuA0tVAmbCpgdO3asa9euNPdPFKmm57yfeICRGqc4BYLfIDGSliGLIHu5YKAZpP8hKlEd1YLXkmlavaFE3QFjwfcaPHhwbm4uy7KYeq40K+4LoccnCR82HmBPX79+ffTo0WAv2smCSx3yV6jzPMAa2lc0Xi6Xw5GC4ScWi5s1axYfH5+fn08CsO7YONLYzbxFFYC9NGqNTqdfsmRJkyZNMAYBD625I+R+L2hR5qunpyfGn1Qqbdu27YkTJ2B2YkKgPqCqLp+Q6O5ygetBHz9+PDY2FgdTwOIinBoa91TfHpghEKRKpdK3ke/06dORZlvbiWAXCFtfvEVTtPBM4RutWbOGJkqq92OqJ9lj/BXN9vT0FIvFERERp06dgo2OSUVyw11AoiaP1BdaYCxKz4PHYzQaL1++PHHiRDod+HckADFEsPvN008/vWLFClsWlz25jKbEakLxutxTX2g5tolSsRiGOXnyZGxsLO1TSvlcBB6GMAhE02AkPFFwF4dRpXghLEy4a7gCBw4zQRWT+gsXLsSiVZpYcexsPV15dGjBnEVQEav/d+zYMWTIEOx3TcqM67cCJ1ATpjkXsLqjxUUdcVgy/fETBg2aFBYW9s4779y5c4fyiOsJkmpe++jQwlww/EQoZI1GU1xcfOrUqQkTJiiVSgrxkSbnYuNYdgtaxD3cSuF4UWyiYsfiivUWd+/etU+kVR5LA6uv7oHaarBx/OnRoUXdg0KGYsMeonq9/vz583FxcZ06dQJscGYx3sFbXGpyeaJWmDlCzr1C3jEmwQMDA/v27btu3TqVSoWZPMT73RWYcATjoVceHVoYhhSNhl+COWJbaqnWtlgjPT197969U6ZMCQ0NRUQHoSYKXvCIWyuouJ44vYerFDE5p1Qqe/fuvWDBgpSUlNLSUiw8hADHgKOINjcG+FBCu+WGR4oWekvpPjSRSmyHWTur1Zqfn/+f//zn9ddfR5YSdwcYLsO5hhaXTTEaZDJZQEBAx44d582bl5qaSjxEqWpEazT1cbHXo0OLOlxNgcd5RqMxIyPj8OHDa9asmThxYmRkZNOmTSEk6S+4BFYl7ToBPIAlfgIqiL2Cn5CjOHDgwHnz5iUkJJw9e7agoAAw1Gs8opruP/SnhoUWjVmSNrYEXq0OI9poNGZnZx86dGjRokWDBg1q164dFvYqFAocNwHjDQFW2f2PVCpFxoBCoWjevHmfPn1mzJjx5Zdf/vLLL+Xl5agRK2hQiy3xyf55KO0e/Q0NDi2QAM4ZMvrI9KdAHH7V6/UFBQVpaWkpKSlJSUk7duzYvHnzli1btm3blpCQsHPnzsTExD179hw4cODYsWPnzp27cuVKYWGhXm+gkBiCmZTZ8XilXE2wb6BoPWi6fboBgW2rxbaw3MgYgV/lRasVuTFE6wfP2ktYe4J1JfgJ8CA2hiwgXK/qDbwXPsavDRotM1uZ5wzRxFUnXIRQpnwmuo3LNEAC3Im/vET5Biv9uIOjQaPFbSipNN5FF742fB6qqlO/J7Sq6sN/z/X/D+Apo8l9o2BQAAAAAElFTkSuQmCC;" vertex="1" parent="1">
          <mxGeometry x="-110" y="445.97" width="73" height="74.53" as="geometry" />
        </mxCell>
        <mxCell id="QtaL7ST3ouDVnCg1hJHW-42" value="" style="shape=image;verticalLabelPosition=bottom;labelBackgroundColor=default;verticalAlign=top;aspect=fixed;imageAspect=0;image=data:image/png,iVBORw0KGgoAAAANSUhEUgAAAIoAAADaCAIAAAD2a03EAAAgAElEQVR4Ae1daXgUVdburuo9CyFswYiETTCDoICAjw7KICiCQkBxQTYVGVGQUQEVRZ0IDii7RkfjoAH0QURwiAsiiEgAHSWAKIvKks0kmEDSSXqrqv7ofuF4p6vTqe5UL5mP/pHcrq66y3nPds8995bGfeETwxTQxHDfLnTNfQGemGaCC/BcgCemKRDTnbsgPRfgiWkKxHTnLkjPBXhimgIx3bkL0nMBnpimQEx37oL0XIAn/BSQvB+0g7LPX/op/H1Rs4UmLD2SJImiyMDghy5ADfeIouhzhyRJPldi7WsThkdOSpAbYLi8H/k9TetKE4aHkZtzReH8h6RK/O+P/JEYRyum4ZFT0+cKS9w/fvIqPLfbLUmSIAgQI2g2l8slCALAw7N/PFVPiW0i8uUIwUNqh0YIatBXUJNIhK9gfVDZbrNXVFQUFhYeOXJk//79e/bs2bp120cffbR27dpVq1ZlZ2dnZWUtWLBg3rx5f//735/zfubNm/eS97N48eJXXnnlzTfffO+99z744INNmzZt2bJl586d33777f79+w8fPnzixIlTp07V1dU5nU7gJ4qit+AxTqyRYztMfSarJh+Uz/3Bfg0vPODWc52WPON0S25JPDdm9BW/EhIeWghiVVXV8ePH9+zes27dugULFkyePHno0KG9evW69NJLL7nkktTU1FatWiUnJyckJBi9H71er5V9OI7jeR6XeZ43eD9mszkuLi4xMTE5Obl169Zt27a95JJLOnXq1KNHj+uvv/72229/6KGHFi5cuHbt2l27dv3yyy9Wq5VUJXCCBj3nVnh9C5QFQSAudDqd524IFpD/vj9c8LB8JEmSw+HAFYiCJEnO8x+Hw1FeXn7kyJE9e/asXr36ySefHDVqVHp6elJSEsdxIC53/lPfV57ndTqdDCAtatCc/3Acp/N+eJ7X6/WAFg9qNBqqXKvVajQavV6fkJDQsWPHQYMGTZkyZcmSJZs3b96/f/+JEyfPnDnjcDgAG1DxlMVzupQoDDjpawiFMMKD3jidTofD4XK57Ha7y+Vyu90YVUVFxX++/c+iRYvuuuuuvn37duzYsVmzZnq9HmTSaDRARKv1kBgfoiDRkfCjp84D8cd/tgYq42d8xV/I2R+PedFCuzzPo6H4+PjU1NTLLrts4MCBU6ZMycrK+uyzzwoKCgADASaKot3uZUcvYCGgQo+EC57/0gBe9W23e4xHfn7+0qVLR4wYkZKSAoqAkXU6HUjMn/9wHAdigUZarZYYn4gInOhBuu5TgDSwEELv8TxPd6Kq8417VCL7E3XGbDYbDAbiD57nk5OT+/bt+8wzz+zcubOkuOTUqVPgQofDAUtGtA6hEC54ICWCINjt9r1792ZnZ997771XXXVVy5Yt9d6PVqslrgThiAQgDXE6aIGvINk5afKqPiJi4AIRlCrHFTQtFyD6larFPXgcSlKv1+t0OpTBZB07dhwyZMisWbM2btxYUFAALyMEVOiRRsHjcrlsNpvb7Yb+hcS4XC5JklwuV0lJSfab2VdffTUNjAjN8iaNv4kW2EFhXDBmCQkJY8aMWbNmTWlpGXkNKMAYg4MJCb+FEOEBAJhVwNo7nU5RFG022759+1asWDFq1KiOHTtCe4DL5MNoonj4dNtnXFAJ5DHqdLoOHTrcfvuYZcuW5efnww8UBMHh8Lh2BJtfbNzuUBOpPGAInhAWcAI75OXlZWRkJCYmmkwmAsZkMkFr+QzDZ5BN96vfccFSGo1Gs/eTkJCg0+ksFsuQIUM2bdpktVrtdrvT6ayrrasPGFwPXXrcbrfT4bTb7SdPnnz99dcHDBhgMBjg4LK8Q5qt6QIQuOc+8MDHA0eSwwk3HYLFcdyVV165dOnS4uJiWAeacsihChEeqLKqqqrly5d36dLFbDZD4cKr4TgOLrK8l4GH2hR/9YGHXA/wKMdxRqORHBA4RDqdLi4urkePHrm5uXDKMdkIHR7MgSl64XQ6P//88yFDhqB59AkKTafT0fSFnLGmSHeFffaBBzM28n30ej1NDEAfiBdI1KFDhzVr1oDXEUzxQUip9LhcLsRdampqqqurMzMz27RpA2nV6XRoWOF4/p/fRqwMjzwlJSUvLw9RFfjALEJK4YEL73Q6q6qqZsyYAYNvMBg0Gg0FRf6f013h8Enh00z87rvvPidA3glJKPDAN6ux1jzwwAM0HSNsLkiPQmw0Gg1LK61Wq9fr27ZtW1xcLAgCPOFQ4LF7P+vXr4+PjzeZTBqNBt4z65wo7+KFO1mrrNPpsrOzMYkk6w6QlCo3p9NZUlLSs2dPWBqwAMQTFugCxYOiADl4Wq3WYDCMGzdOEATvMoR32eW8BCmCRxRFp9M5e/ZsLKuwscWg+hTum32cKHKfwt1uI+vnOC4jIwPScx6Xc/8VwCN5lgAqKip69+4NY9PI3oTv8aYLzy233EILkixCSuHZu3dvy5YtocdAhfBROeSamyg8PM8DHqxShgLPtm3bWrRoQaGBkCkY1gebLjxjx45F4ABrRYSQUunZvHlzQkICiAuPIKyEDq3yJgoPx3GPPvoorTUQNsoi1l7b88knn8ClJpcjNAqG9SmCx2AwIHYS1ubUqvxsiHLevHlYJ/NJIFEqPZ999lmzZs0QflarW6rXg4CjVqvt379/WloaEIp9/02r1b799tuY8WBySgKkFJ4tW7YkJiYiisNOqVQncWMqxCqLRqOZOHHiyJEjSZgaU2cEnuU4btu2bYAkROn56quvEhMTERuPWduDGL5Opxs3btyrr75Ky04RIHFjmuB5/tChw36zrpRKz3/+85/k5GQEC9ioUWO6FY5noX7vu+++3377zWKxQIDC0ZCKdSYmJhYVFWFtm9QaCkrhOXr0aEpKSoyrC1JukydPttlsvXv3bhLwtGvX7rfffnO73S6nJw+Q/SiAx3v76dOnL7nkEgRAY1Z6YBT1ev3EiRNrampmzpyJCHEse5s8z6enp1dVVcE1CDEk6nA4rrvuutj3hRCin/LAFKfTmZOTk5iYiOVLFXWRilXB1ezdu3dNTQ18thDhkSTpkUceIcc6Zr1VMNDUqVOdTuf+/fvbtWuHPsdmWB3wXH/99XV1dY1a7xEE4c0330T0W0X2Ub0q6Ldp06bV1dmqqqr69OkDYCwWSwzOBwDP0KFDbTYb5CZ4x9prewRB2L17t8ViwdRHdbKqVSHs4vTp07F6//jjj8NeYkqgVitq1QN4xowZQ+nzrF+gLKjjfUKSpN9++w3pH2p1Lhz1IAMGyk0UxE8//RRhXLVWddXV6oDn/vvvp1yDEOFxu90Oh6N79+6NcdtgBqBk5ONk/Q7sFAgWPzKNjz32GDZAlZWVtWvXDvsRlCg3zGTRrta74YdS1HARnQTY8iEE1WGapcyePdtut9NeO1a/KXWsMae9+eabQ87LIer4MDKZbrhYIddPW4I0Gs3MmTMRYXS73SNGjEDT1IEGiYhcV7oNO+soVgKE8GsjmRVjnzdvHuakPm5bcMrN7XY/9NBDLH/RAJQU8CDxHe2woQpJeoitgp1UUuWzZ89G5pckSa+++irptwb7iTupA0gixFMk+mil8dl9aIXjuOXLl3vmpN6dHSEqNw+wkjszM1MhyWiEVDCbzXL7jDFDSxAnIj8PVGBZtUHi0iNPPfUUVrccDsf+/fvbtGlTX7epeygYDAZsavQRNeSOaTQai8VCYkSwsZU02Em6AU/xPL9y5Up1knhfffVVZFFTG/UVfHgNhGvRosUVV1wxcuTIhx566Jlnnlm4cOHy5cuzvJ/ly5e/8MIL06ZNGzFiRI8ePRITE8lgKFfx8KE5jnv66acxYKfTWVpa2rt37/rmPSxlYaibNWt2+eWXD71p6JQpU+bNm7d8+fLXXnstOzv7n//858svv/zII4+MHz9+0KBBXbp0SUxMlG85ro8g8utoWqfTrV+/HpaS3ZALMQrC9rhcro0bNiLbXd4Ypb3jJ2gJiIvRaOzWrdtLL7303XfflZeXW61WpASzNtC7EcVzBkFtbW1ZWdmOHTuefPLJVq1a6XQ62iwI8iHbv75YALB89tln4QvhUINJkyaBFmwqC4ksx3Fms1mj0bRr1+6555776quvysrKrFYrSzIQDtkaTqezurq6qKho69at8+fPv/jiixGqMBgMpPHADaS3WXJBSeAvtmNu374dS6U+iz1B2B74FV9++WVSUpKPdKNtjBYUpLLFYunTp8+rr7565swZQEImQd4V7BajCZrD4SguLp43b163bt1I3Wk0GtoEgVbYkVMOZmZmpiB4Tp+ADGVlZSFaikdYudRqtWazuVu3bs8//3xhYSE8KJfL5XQ6XS7Pzkva3YEC0p3sdjvMuN1ur6qqWrp0aa9evYh7KDJL/WE7CWCgtKEz9+zZ01h4wOnff/89tuyy7aFMhh0ciobnzp1bVFQEitOJHD7Wj76iCVDB5XLhEIiamppffvll3LhxJpPJbDbTyOVmDN2A1M6fPx+1iaLocrkOHDhgNBrJMhF7oc9PPfXUr7/+6vB+iHuoVz4FpGqgk27Js2sT4yoqKvrb3/4G6UE/WYKw5AI8UP7YkXrw4EHAE7rn5mFDUfrxxx/T0tJIUbCtEu/odDqj0WixWBYsWCCKIlQZy4MBDiNi1Z1ne5f38IbTp09XVVVNvn8y6Qofu812A0T5xz/+cY6C3n36drv9iiuuYN1rouP8+fMFQaiurobioixn4OqDDX0FirgZ4QmbzSa4hMceewzOBVGf7RvK1HkU4uLiCgoKIOU+ww9CuWGT4smTJ//0pz/5hQe0A0gcx02ZMsXtdtfU1MCjxxjAIxiVnFPQRZBAFEWwM/aew8Jfe+217IyExsmSAH1bsGABLT5Cqc6ZMwc6DfoNQjZ06NDS0lKn0+l2u4mNvN3w9MKbdea7AONVep69zfgAVOx5tlqt5eXlN9xwA+uG+NXA6DkodtFFF1VUVFAOog9CSl0DGIaKiop+/fr5TeIF24IErVu3/uKLLwgAmBn8dTgc0O/EiVTA/cTFkB78Cow3bNhgNBqxRbK+0B+68dJLL4F86LYkSVu3bjWZTB4brvMc78LzvMViycnJwc5yapq6Csyob/ICIPHU791jC6WHVQxYxwCBD9YvuOyyy2pqaggeIhpaVAqPh/FFz0kro0ePZrmVygSPXq9v06bNgf0HaqyeVsFu8uE1eMXlcjkcDlABBxDt3bu3efPmkA+yH9QBFDDyJUuWsAOWJKmkpKRr1640K8B5BHv37pUkyWazSZJE1r7BjvncQHoJLR44cID8t8CdhAQPGjRI9HoxPtXiq1J4SFc8+eSTfpUbqTWO41q2bLl9+3aE6YhMfptv8CJxZV1d3WeffYZDOTA99AEGX6E3AA/ZW5vNVltbO3LkSHbx1Gg0fvzxx7AiMHINSkx9va2r82ywrq2tlSTp448/xgab+rAhdw4scuedd7Ja3acJpfCAyoIgZGdn+4WHLIFer+d5fvbs2XBP6YgFn4aVfAVf42ykM2fO3HrrrXQEBzXnAxKEeNmyZcAGKs5h9xxPlJmZCb/8nHeu0U6YMKGyshIi7qP0lXQP90AdQWOXl5dnZGTQpIedZrH9RCcxpZ0xYwbpYXmjSuGB9Lhcri+++II8KLZJmieCa+Li4nJyctCwy+U54U7edgNXvG4rXANBEObPn4/TXmjM0GNsH+Av6XS65cuXw4ogkAXe+vTTT2lKizvj4+NzcnLOb6zx6LcGuuTv57Nba8BGbrf7rbfeiouLIy+pPh4Cf2PtA14MVezDJUHAAxfo6NGj8fHxLFGoDHrBO4B/uWLFCkxIQSzqhJKCJEl1dXUOh6O0tHThwoUtW7aE6JBjIh88ZjZ6vX7FihXQimgX2gPrVQCGVHFycvKypcvKy8vJpVbSN/YeWMfi4uLXXnutefPmiJ5APvyqGVxEB3ieX7NmDVtbiPCg94Ig2Gy2Dh06+G0YOJEraTabExISMjIyvvnmG5CJtcDoB2w+leFoeSyB96gtSXJ//vnnAwYMwKSSaiaG8CkQ6bOysmBIUDP+CoIwfPhwsDYFDnD63o033rhjxw5yxgLMzKAGcP4ZNIooinl5ecOGDbNYLHRiAHWVCtRV8qHQ27y8PBYen3IQ0kNHG/Xr168+/UadgCRhAzcO//nkk0+OHTtmtVqhTOCVQfthDoi5jsvlOn369JEjR9atW3frrbfiRDyj0SgfJ7XFFtCxN998E9LDjlYUxdWrV6MeyBkEEfxuMBiGDRuWm5t7+PDh06dPe2MBot1uh+8A9Ug9dDqd6OSGDRtGjx5NtYH0bH/kZXQA/G0ymY4dO8Z20qccHDzgndGjRzcID7pFsUKO4+Li4tLT04cPHz5z5sysrKwPPvhg8+bN27Zt2759+xdffPHpp5+uXLly0aJF06ZNGzx4cFpaGkL3YHOK58tH63MFZnnlypU0BaYBi6JYWVnZsmVL8qlwMxlqjuNMJlPnzp2HDBkyderUxYsXr1mzZsuWLTt27MjLy9uxY8fWrVvPJmctXrz4wQcfHDx4cKdOnRAgRmwGsRyf/vj9CoR0Ol2LFi1qamqoh/KCUnjwJMzPjBkzGmQT9AAoIr+HFBTCtCwTYQzgQeo67ocN8ztI+UXiYkr4ZwcMD23gwIGkmal7KGC+gjLsHHUSP+FBzItpbRekwE/s8p28e3SF6unUqVNgpyk4eCDpL7/8coPwoPdQcXC14e/jCllmEBR/cRvEhawIEYvGFqBAE/XVq1fD3vjAIwjCzJkzIdPwLAghzEJoXOgAxAstIhpLE1u2n1SV3Fupr7eouX///mwP5eWg4ZEk6V//+hdGVV/bNB4UaAnA7/3gUBZO3MaqIL8Pyi8iIsdx3Nq1a+WemOg9AXjNmjXQQqTZUA92bIGHaAM6fiJeoRYJRfYKIUcX/RYAIUIGN998sxwS9krQ8Iii+NFHH6ErRFm//YjKRYD6/tr35dID1+aHH37AVgvIcVQ6CfHVarXjxo2TRMnvYUcASSk8GC1meTt37kxISCANHpUR1tcoiL5u3Tq/8EiSZLVar7nmGghEfZWE+zoUKc/z06ZN80i5V6xZoaGyUngws/P89a76BEiuCPfYAtcP1bH+g/X1mVxBEGbNmgX3JHBV4fsV06Ozp57Pnz9fHXjOMaN3G/Dx48c7d+4cg9KDLnEc9+GHH3ri/LLXv2AytH37dnbhNXww1FczeMhoNL799tvqwANxw7ystLQUS+uxZnswbJ7nN2zYIJ/3wPaIolhXV5eeng4NUx8Fw3odjqvFYvnoo488E/PGKzfAg7DH77//PmTIEHLeQJSwjkdh5eRi5ebmyqMGGAKCPRMmTCCXGjIXSWWASVViYuL27duxHkjGxqcQhO2hlUe73T5+/HiyrrEDD0XNP/300/rggZZesWIF9BuLTcSUAaSnRYsW+/L3qQMPRoUQ2dn3iMydO5doQSFkhTwe1tvAK1u2bKkPHsQOduzYkZycjMkHi1BY+8ZWrtVqU1NTcVK8j8SwX5VKD83ykBOyatUqFp4YESBwpUaj+fLLL/3aHigAu91eVFTUoUMHNh4TYeWm1Wq7detWUVHBgiEvK4WHTaF3Op3ffPMNBTyIKCx3RKVM7vKOHTsg6D4DposOh+OOO+6A3EdeekC6wYMH0zqeTz/pq1J4MI0ASzqdzoKCArPZjDkgok9RwcOnUQpsf/3114QEDRUKAFra4XAsX75c7h34VBimr1jCmDRpUoMr/UrhIeWGgsPhwKkBJENhGkmw1YJjdu/eXZ/tAYcJgnDy5Mn4+HiIPtyciKloNLdo0aIGk09ChEeSpIyMDAS4OO25F+0ES8pw3A94aH2WFR3yPCk7Z+DAgewx4JH03LRabX2TM7bPocPz9NNPIzgROwJEVvD777+vL6hDOS1nqfDss88iOA0+A7ThYBp5nQaD4Ycffqivk4RQiPCIovj+++8jVZNWWeSdiPAV2sSyb98+GqFPgTWimzdvZk9Bixg8HMe1bdu2srKywQyZUOERxP379yNlR774EWFUqDl6fcMPP/zAGktCiPKq8Ouvv/566aWX0uwnYrZHp9P17t0bcnwumEld/O9CEPCwD0qSVFhYmJqaitlPxLQ2IeG3QD4ktmSwHUaZ8qpgh6zV1htuuAEqGn/9VqvuRay6ZmRkoA+BBShEeARBqKysvPzyy6EQIsZ3DVIK/Tl06FDgYUN6zq6PzJ07F7kDERsCDOSjjz5KroqcjehKiPC4XK6ampqBAweS+WmQcJG5AVOZn3/+uUGri4nRl19+SQ5FZBDCUukbb7xxLq4hW/UgbILY38M+g8i83W5HilfsxNwwn9DpdMeOHVMIj9VqveiiiyLmFCCLOC4ubvPmzQ6HAwLkQ1v2a4jSg8jbY489Rvn2kRGOwK0gPKPT6Y4fP64EHoRHJ0yYEBm5Qef1en1KSkp+fj6bx8pCwpZDhAewL1u2jBLSAxMuMr+CyoBHie2Bfnv33Xfr28wVjm5rtdrOnTtDvgO7baErN2xdW79+PRu3Dsdggq0TCBUWFvp1rFnGRNnlcv148Md27dpFQL9BuHme79OnT0VFBRzrwGwUqvR4Xx+/e/dusqvB0jFM98PFx3usG+RNHN/5+++/Y9dqmLpE1RI8d9xxBzbbYuOjnGnoSqjweCsoKCiIi4uLpOKmodZXALvgYFsaZH0FevH9lClT6qtQxeuAR6PRzJ07FxHbBhkodHgkSaqurk5PT6dVbRVHElpViF8YDIaSkpIGRw7M4N2uXLmS8rNDa1rJUwTPu+++C+kJl+eGE5RcLtdtt90WO0EdyLHRaCwpKWnQcwM8TqfT4XD89NNP8fHx4VYDgMdoNCJiC84I3M/QpQdbXmbNmhUBvlPCm7RZx2w2FxcXK5EeMs61tbV9+vSh4JvC5hTeBtQ92Gi0Go2mdevWVVVVWNTwu2bIquLQ4YFrtHLlSspVV9jd8N0Gw5OUlFRaWqrIc/M6OLjzueeeA5+pHj9kK4TbhswAwBCYjRoLz6FDh+Li4sJH8aBqBjytWrU6deqUInjOnwsjimJ+fj70G0vNoFoPcDO8dqy8TJ48GVKL4AsrK/JyiPAAc0HwnNmUmpoaOwKEUxVOnToVmCtZQkDDnDlzBufuqA4P7ViG8szKyiJ4Ahue0KelBI8kSf3794/krDsAk2KO3KZNm99//73BkUO8kNqPnQtjx44Nh5tDG7V4nk9MTPzqq68UGp7Q4QH3YcaLraaBqRaxXzmOa9eu3ZkzZ7x0Z4XEfxnwYJlu8eLFlJmsboeR0aDVajt06PDzzz+juTB6buBN5AE9+uijmPqorhZCoJFWq23fvj0OU/APCHMVzieUmyAIX375Je28oTlKCH3weQSGB/q/b9++ZWVlyhVviLYHmgFcsGTJEowqRuDp0KFDVVVVfYlUDDqe4h9mQBDLy8ubN29O+S1qReF4jqc15dGjR+MQNZ9u1Pc1dHjoQK/169fj/IIYgadz5844nK2+MbPXPYzsda8Fl2f7xe23347cHRUnc3DY4BfQGbRsHwKUQ4QH4ulyCZIk7dq1CwfnRh0eaKSuXbvW1tY2mOHHEgX6zel0rl+/HsCo6COALKh2zZo1sHZs6wHKjYIHrkFhYWHbtm1VHI+P7lb+FfCkp6fjHNIAw2Z/gopG+Ku8vBxvkUJVKjIcz/NGoxG5bZGwPecPLvecSEmvAaMAhnKaqnunVqu94oorcLIni0GAMjwoCJAoSkOHDoU6Utc70Ov1F198cXV1tXJsQnes4blBekRRHDduHMtu4Y4tBkBUq9X26dMHRxsGRQjA43a7n3jiCXhZKuoDJNLefPPNSmZjLCeFrtw8m7S9p7RJorR8+XLKMYsuNlqt9qqrrsL50+w4GyyTe71x40Yc56OiZkNGxuLFi4kJGuwPbggRHlqowEHOeXl5lKGJUak7tgDiwv6ESWX//v1xBLxCEuA2EM5msx0+fLhVq1Y40UcV3xqkMBqN9e06CtDPxsKD6UVlZSXSkSgdPirwYHZ87bXX4pi4AMOW/0R8bbVar7vuOuhqVWKJCNS2b9/+5MmTQenb0G0PbZYjLd+3b186/z0q2NB6z3XXXackGOyDEODBma/PP/88xTFZ6QytzHGc0Wi85pprqqqqIgQPOzYMbMKECSwqbDm0UYXwFIz5oEGDyBlj+6mw7HQ69+3bRycghdANn0cwIb3vvvuwMquwG7gtdOVGzQCeefPmsUcyRQUeaKSbbroJU79gWRUjkiSppqamV69eaoVH8RKVpUuXegPVAXN2iabnC6rBs27dOnr5ZBSdN47jRowYQRHb88MM4j9AnTZtmlrzHlBj27ZtWEcIoitut2rw7Nq1q0WLFlAvUREd2B6e58eMGUN2Piha4GaY1ZycHLzUx0dThfBVq9U2b978XGZk/eez+O2qavCcOHGiU6dOpBCighC2zowdOzYE14Cljsvlys/Pv+iii1RRAxzHDR06FOd8BqtvVYDHc/CT5LZWe85Jo8lptODhef6ee+7BMkGwtDgfpvJMt8vKyrp37954/QavevHixXTWfFC9UgMeL+OJojh16lTa3RmCEmj8I6DF+PHjG297XC7XxIkToQxCZjXMw4xG4+HDh+GtBM6oZiUYZTXhWbVqlVajhUIIeUiNBInjuAkTJjTS9kCM1q5dC3sW8lgAz2XdLmMPMJdjEOCKavA4HI78/Hw6DbmRVA75cZ7n7733XqxSBxh2fT95HvS+j0cUxd9++y05Obkx+g3wZGRkCILgcDho5aK+1uXXVYNHkqSqqip6DV/I9G3kgxzHTZ48OYSgDpEGtgEH0w8bNqyR8PA8P2fOHFSO98hQQ0oKqsGDifrw4cM5jotiXhXP8w888EDgN78FpguehXpcuHBhI+Exm83vv/8+3ksQ1DopOqkmPIRpb4AAABPMSURBVKIoYjwqrpQEJUxQJg8//DDUSLCLKyxsouh5gcK3336LU5WVG1RaC8eh2klJSfv374ejH0IsQzV40HZubm5iYiIsalCUVeVmwDNjxgwlKWQsGGz5XO6O91DbkydPdu/eHUEzhYMCkMgnMRgM3bt3R8J7g4dPsX2gsmrw4KUqhw4dwkbAkL2dRuLEcdysWbMaExJlvb66ujq80kx5rzBwvDKF5/mZM2cSMJDp6Mx7wHTFxcVXXXWVKqtYyilCd2Le88wzz4Sg5YlhqYARvfjii5Ab5Ws/EGK8lmTXrl3oDJzJYDummvRgVLW1tePGjVMlFkJEV15AUCczMxP7+onQoRVE7yuesBCsULOhq5SqgJwhiAsmpEGJTujLcfIBo2GXy7VgwYJonVEF6cFLS0MIDyNplCgI6amoqEhLS6PcnQZ5BXETBLfGjx/vqUQQoWwpA0BOvfquqCY9nlc1eM3pV199RTmrDQ5G3Ruw4PTKK6/gLd2gL2mV0AqCIGClUaFKoJi9wWBYtmwZIK+P+g1eVw8eSQKPVFVVXXzxxVHxraH0sYEmBFaVEwvT29zcXERDFCKEhIvmzZvv3LkzWGPj0wfV4MH5/WCWsWPHNmY21xiR0uv1b7zxBhJUQBp4Ygr/+pWwEydO4GVpCjuGGU/nzp0LCwtDSOliEVINHu+78AS86fett96ihR+FQ1LlNhzsnpOTI4qizWYjR1YhNnJl6HK5rFZrdXX1TTfdhNOKGpwwYIODVqsdNWoUojhkzFi6KyyrBg+5j4IgHDx4MCkpqcGRqAIJWwnO4srIyHjmmWfmzp377Nxn5wb5OeuUs5+nnnpqxowZDz74INZ+lEwYwJcGg+GVV17BwmtMwAN2wDkbZWVlPXr0IP2mlh1ChexfFhu/ZfZmVcp+W/G5aDQa4+LiCgsLQ8iG9JEqNaUHGv/s+4vq6upuu+02OktMCdP5jNDvVzl9fW6T36D6FZ8W5V+RIDdo0CCP1Qkys8AHGzXnPeSiQIMjNtrI1Uafwctp7XNDCF/ldQa+0mATUBULFy5UZWqsmvSwGtZud2zZssVoNGo0GvxVxQ4FJpwqTcip79Oo/AafKzzPJycn5+XlIftcLhBBXVENHlEQodxgD0tLS9PS0pDWi+mIzzBC+OpDKSVfKbyPQuMbVVJDr169SkpKsDwaFBjym1WDh7aaUsR35MiReu8HsRYlA2PvgTSwz4LEclR0Op3FYomPj09MTExKSmrZsmVKSkqq99OmTZvk5ORmzZpZLBYKzFANhBlJHgpkLOlOKrA9RJl9Fow4fvz4c8e1eTfYyImu/Iqa8KBVgufdd9+l4JvC+TY7eK1Wi3kMiEhvSjUajcnJyf369bv33nvnzJnzxhtvrFu3bvPmzTu9nz179uTn5x86dOiw9/PTTz999913O3bsyM3NXbVq1ZIlSx577LGhQ4d27do1Li4O3SPYaF0H9oO+sr2SlwEPBggUc3JyMOUKNi9HDlu44HG5XBUVFa1bt2bZXz62AFdAHSQo6/V6o9HYrVu3qVOnbtiwoaioCJodihQzYjZGgIiO0+mkhR+acoJkdXV1+fn577zzzqhRozp16pSQkEB+JpLf0boSrgI8iFLr9fpWrVoVFRUhWNCY5VpAFS54kI0/YMAAk8kUMkIgGd7M/sILL/z66684XNjlcjm8H6wBCt4N4p6okt1RVVVVWlpaVFR04sSJ495PQUFBRUWFw+FAwIYC+06nE/X88ssv77zzTu/evQ0GAyXuQoBIywVgI5Ib+EFjx45FpA5apJECFC54QAu8P5y0c4BByn+CTjOZTKmpqVu3bkU2hdPpxK7r2tra0tLSgwcPrl27NjMzc8KECYMHD+7Vq1eXLl1atWplNpvptTUmk6l9+/b9+/e/4YYbpk+fnpub+8svvxQXF4PBbTZbdXU1mOnBBx80mUx4x73yqTTszTkNrDcg8QNiDSLIVZbyK+GCB8pkw4YNiPXKqd/gFeyG7Nu37549e5DG53K5nE7ngQMHFixYMHz48O7duyclJYGOEFCaZsEGgGR0A1KIOI5LSUkZMGDA7Nmzt2/fXlNTAxmSJKm2tnbhwoVJSUlY6MTjDfYTa4BY4ElLSzt69Kgn18fpQi6jciT83qk+PGgGBD158mRCQoJCTiQlTgf/63S6r7/+2ul0ejbCC0J5efm9995L+gfmAUjgb4OkxA2gOzyCa665Bu9istvtsGdz5swBzEo0G7WOMQ4ePDiELXB+gcHFcMGD2q1W68iRI8l/C0w+GqpOp+N5Pj4+fu3atVBB1dXVa9asSUtL0+v1YG26mS0Erp9+JXWEo4CSk5NnzZpVUlICF+PEiRM9e/bEmo0S14CNZGdmZtLCaACiK/8pjPBAF61evVrhQj2ba9GsWbMbb7yxtrZWEASbzbZkyRKTyWQ2m3F4D1wGH1Wm3MIBHuBqNBpNJpNOpxs4cGBJSYnd+9m4cWOwufwIteXl5dG8QjkGAe4MLzySJJWUlLRu3VqJooDOIVX+3nvvCYJQVVW1cOFC2CEQFNiQvxSa9ABLrVaLmBNQv+22206fPg1fa9CgQRaLhQQuQIFS2vr372+1Win2GIDoyn8KIzyICYqieMvwW5TAA/MOA961a9fy8nK73f7ZZ581a9YMm5vJhtFEksVGufSwtOZ5Hq6/0fuZM2eO1Wp1Op3Z2dmYFLM3+y2jXb1en5WV5XXVPPKjHIDAd4YRHqycSpI07/yuYOJZv+OEJYCWeO2119xud3l5eXp6usdL5jgWCTzOXkHZb7WBL0IKoVehLXNzc0VRPHDgwEUXXaQkWRyDateuXWlpKWI5TQAedBGSvvPrnc2bN8dLpuhcCjnVgAHHcV26dKmsrKytrb3//vtxf8jUl7fi9wqL9IgRI6qrq8+cOUOHTwSWS/w6bNgwHPEQWBqC/TVc0gN4sK+loqKiZ8+enNYjAQSP3Ckii/3www8LgvDFF19YLBa4ahGDx2AwNGvW7Ouvv3a73c8//zzB5hdUXMSIXn75ZdpjFSwGAe4PFzxoEuk7Z9dPcVg8tAdGJWdJgGc2m1evXi2K4sSJE3GKH4CUwxmAZMH+RDCA1vfcc4+tzrZt2zZSqgEq1Ol0JpPp+++/h18QgNYh/BReeCjAtXfvXto4V5+bAF+2RYsWP/zww9GjR1NSUshJk2MZgF4h/ETwoEWj0fjjjz9ardY2bdo0KLg4oqyuro6OPw4BhvoeCRc87OZbpOhfc801kJ761k/hWPfs2bOysnLGjBk8z9MiQoM0CgES9hGCh86sffHFF0VRHDx4cINNcxy3evVqnI2JBcn6aB3C9XDB49MVURRxjpBGo4E7JFdW8NmmPDCluLiYDhhhiRixslarvf7668vKyp544glCDqaRIklgJo7jLr74YvjijTxMwYdi+Bo5eHbs2JGSkhJAm0PprVy58r333oviK+kQNEpNTT106NCqVasQwCYZIrQQA+U47u6770b8V914QaThKS8vx9YfNnjDCgRGfujQofvuu68++8TeH44yiYjBYMjJycnLy0tISEDip4+HAo/AZDKtWbMGwenGL77JBShy0iOKYmZmZoCNwVqtNjk5+dSpU/369cPyZTgAaLBOcI9Opxs9evTRo0eRzo+wIYkOwqAcx3Xs2PHYsWMUBm3k4ls04Tn7qqyDBw8mJibSTNOHUnq9/uqrrz5y5EjLli3Zs8d8bgv3V4q0pqSkHD16tGfPnnDnKLALkHDbI488AqcAoqO6AEVIemipf/jw4XAN5L4yz/P33Xffhg0bKDYabiTk9YPoYCCe5zdt2oTYASW2Q8UBIYvFsmvXLkiM6sBE1PYgN0MQhHfffZfeYsQihED17NmzJ02aBPXC/iqnY/iukPPCcdyzzz57yy230BVWbniev+GGG3C4pYpBNh/9FiHpgdPpcDiKioouu+wyBOFZALRa7Vmpeu6559q1a0fOd/gwCFwzrR8OHToUW+PQVfzF215MJlNWVpbPfkcf4jb+a+TgQf5KXV3dpEmTsEHJB564uLiZM2dCs2F6EZiI4fsV4SWdTte1a9cHHngAjgA1h9WNtLS0gwcPwpn+X5Aer37zDCc3N5ccIRqzVqtt1qzZ6FGjaZmSBY9uC3cBwKB7er2+bdu2U6dOpRdP02l1Go1mzJgxNTU1/1PSY7PZJEn6/fff2d0/oDi86n79+tG24ajAAycN27g0Gk18fPydd95Jnhv8Aqi+Dz/8kM1na7we81tDpJUb2O39998H9eEFcJ5D4LikpKQuXbrAR4gWNiSd6IDBYPjLX/6CpXSKQhkMhl69elmt1hBOmPKLQYCLkYPHs8LrXeSVJOno0aPdu3fHCr/O+4FOi4uLw7yd9AnRKyoFjuPat28PjYdABjK/X3zxRdA0TP40ARZJeM7ZUZyqOX36dMRAwaeECmYeUQHDb6M+k2idTte+ffuffvoJSe5BvcSJiK68EFF4aAYnSdK2bduMRiNS2qDQQIgozknl8FAIjnhIq9XeddddtbW1gEc5oUO7M3LwYGbqkSBRcrlctbW12I1OizpkgUmNyOkV+StsnA3i/tFHH2E2SqG20Eiv5KlIwwNvBwPbtGkTXujs8zY9GOH6AtsRRgjcQzKdnp5O6ThQ1kqoHPI9EYWH7SWy4IYMGUJJaxGmu8LmCBiDwWCxWN555x2kYlNWPjso1ctRgwce9ttvv43tTlH3pP2iRUE2hN169OiBN6LabDYgEb54AeqPGjxIqDx+/Pill15qMBh0vM4vgaJ+EZ4klqlmz57t9H7CtzzqI39Rg8ftdtfV1UmStGjRIvBm1JHw2wEYQoRB9+7dCwcHEV46hdKHpip+jRo8kiTV1dWJonjq1Kn+/fvTnNwvjaJ4kdz9jIwMdJg2sXrmpKplU/vHNGrwYL4NL+jtt99Gag7cpCjOTMmNZgscxyUkJGDljTU2bNk/dRt9NWrw0DTI7XYXFhZeddVVJpMJOiSK8x4WFZTh3w8ePDjc8Ru/UEYNHkx9aH733nvvkYcdxRmPHB6NRmOxWLKzs7G32y8Rw3cxavCcC8BJnpflYB/z8OHDoeixsB8VeyOHR6vVdunSpbi4mJyC8IEhrzlq8GD3j9vtrq2pxSlweXl57du3h34DmSKPkBweg8GwePHic7u3G30AmByAwFeiBg9rVxFedDgcEydOxDI2wjyxAE96ejreK6bKCVOBwZD/GjV45F1xOp1Hjhzp2LEjXAOf/JiIhRXQLrzHuLi4FStWUBQn8t5BDMGDcz9ycnKw2ZPyEUjhREaYkIaHHdudO3cuKCig6WdkFhFYxo0heGCBampqhg0bhoVUAiZipghCw/M8Xjr/yiuvuFwuu92uyhEfLN0VlmMLHoSxt23bxiaEEEgRkB7k4qDFfv364TR52pWI95YppKwqt8UQPOBQKPrp06fTMl0k4aG3srdo0WLTpk1YnaIZNOvOqEL9BiuJIXhgeDEHKiwsvP7665HQREmB4ZAeudrEyvqIESPOnDkTgQW3wAjFEDzEpND1q1atatmyJVIyaXeA6gixDiGgQoRt9+7djXkBXWCiK/81huAhtxXHoFVVVU2aNMmzFKTTYfu86tj4VIjEj7PnL2RmZobjkALlqNCdMQQPDuWm9w64XK6qqqorr7zSZDJRTroPQVX8CmzMZnP//v0rKyrhQ6u+lZforrAQQ/BAaGB+ke4rCMLGjRvpRBEVwZBXBXhMJtPq1au964RukmaFpAzHbTEED1aI6fhnCmZPnz4dBy7LaariFTggngMnbDa8FRPzsHAQXXmdMQSP3067XEJZWdmNN95IyVYIyiG2HSw85KOTF4CTflD5n//858pKj1oL974DvyP1ezF24SHdIorivn37UlNTcV4FEktDWxOSwwOYLRaL2WzesmULLepEforTxOCBbpEkCS9Kev31181mM5aCgA0ip0EJkA882AWG97ksXryYzfq8AI9fdvmvi7QPHUdWPv7440ajsTFOtg88SDHU6/XTpk1j37UT9dkoUSF2lRtohDOtJEmy2+2VlZW33OI5WJGW7IISHXkInOc8VQ0aNKi4uBgnn7JWJxZAil145JTCxqCuXbtSPBvwUJqcj3DIwYNWRKQATw0fPrygoICCnmiUmDfqhZiGx4c6cLWPHTt26aWX0v4sOMTytTtA5YMQTrnCVi+LxXL11Vd/9913BAk5Iz7tRvFrU4IHyw12u33r1q1paWk44Bj2Aw6Yj/TI42kG70en0xmNxj//ecCRI0foPAxMiqOIhN+mmxI8FN632+wlJSXdunXT6/Vs5mJ98LDXcerfzTfffObMGRaS0F7i7JemKl5sYvBAv+E9JD/++OOYMWPw2hDaB8kiAenBFXLSUlJSMjMzy8rKKChAIMWIM82i25TgwVIQNm/Qm2IWLVqEg67pIDwfhBBMAzydOnXKz8+vqalBhjdZHRQu2B6WMxpVhs3ASb/ff//9X//6127duhmNRoCByAIMEs/zbdq0ufHGG7Ozs2trayF/aDsGxcWHKE1JetiuY1JC8uR0OgsKCv7973/PmjVr8ODBl3k/AwcOnDRp0uuvv56fn19dXe2JPjhdbGiArTA2y00bHrzBClYdycAeQyJ4XoMFPCAreIU2gImFyaZyVmjK8CClVvIszMDO/4GQ95WHhAeMCqmyJoRQE4aH/GyEfCRRQtwM6YzIvCUk8PYkUolUUM7IUbmzqcLTILFYWaGb6SJdifHC/yw8MU53hd37P5oGw17w2VtOAAAAAElFTkSuQmCC;" vertex="1" parent="1">
          <mxGeometry x="-101.82999999999993" y="297.47" width="56.65" height="89.5" as="geometry" />
        </mxCell>
      </root>
    </mxGraphModel>
  </diagram>
</mxfile>
